<svg xmlns="http://www.w3.org/2000/svg" width="84.683" height="84.683" viewBox="0 0 84.683 84.683">
  <g id="Content_Management" data-name="Content Management" transform="translate(-16 -16)">
    <g id="Outline" transform="translate(16 16)">
      <rect id="Rectangle_17880" data-name="Rectangle 17880" width="3.149" height="1.574" transform="translate(40.767 76.98)" fill="#1b7bcb"/>
      <path id="Path_9787" data-name="Path 9787" d="M23.057,47.05H28.25l9.512,6.794a1.411,1.411,0,0,0,2.2-1.426L38.892,47.05h9.569a7.065,7.065,0,0,0,7.057-7.057V23.057A7.065,7.065,0,0,0,48.462,16h-25.4A7.065,7.065,0,0,0,16,23.057V39.993a7.065,7.065,0,0,0,7.057,7.057ZM18.823,23.057a4.239,4.239,0,0,1,4.234-4.234h25.4A4.239,4.239,0,0,1,52.7,23.057V39.993a4.239,4.239,0,0,1-4.234,4.234H37.171a1.411,1.411,0,0,0-1.384,1.688l.711,3.557L29.522,44.49a1.411,1.411,0,0,0-.82-.263H23.057a4.239,4.239,0,0,1-4.234-4.234Z" transform="translate(-16 -16)" fill="#1b7bcb"/>
      <path id="Path_9788" data-name="Path 9788" d="M65.474,56.537v8.468a1.411,1.411,0,0,0,1.411,1.411H78.176a1.411,1.411,0,0,0,1.411-1.411v-.539l3.6,1.8a1.411,1.411,0,0,0,2.043-1.262V56.537a1.411,1.411,0,0,0-2.043-1.262l-3.6,1.8v-.539c0-.023-.012-.043-.013-.066a4.933,4.933,0,1,0-7.044-6.909,4.933,4.933,0,1,0-7.043,6.909C65.486,56.494,65.474,56.513,65.474,56.537Zm11.291,7.057H68.3V57.948h8.468Zm5.646-4.773v3.9L79.588,61.31V60.232Zm-6.351-7.929a2.117,2.117,0,1,1-2.117,2.117A2.117,2.117,0,0,1,76.059,50.891Zm-7.057,0a2.117,2.117,0,1,1-2.117,2.117A2.117,2.117,0,0,1,69,50.891Z" transform="translate(-55.594 -42.423)" fill="#1b7bcb"/>
      <path id="Path_9789" data-name="Path 9789" d="M185.866,53.646H173.021A7.069,7.069,0,0,0,166.107,48H150.582v2.823h15.525a4.227,4.227,0,0,1,3.974,2.823H157.639a7.065,7.065,0,0,0-7.057,7.057V77.639a7.065,7.065,0,0,0,7.057,7.057H168.62l-1.074,5.369a1.411,1.411,0,0,0,2.2,1.426l.591-.422v5.746L166.4,92.872a6.4,6.4,0,1,0-9.053,9.053l8.353,8.353a13.261,13.261,0,0,0-1.325,2.646H128v7.057a7.065,7.065,0,0,0,7.057,7.057h49.4a1.411,1.411,0,0,0,1.411-1.411V98.866a15.455,15.455,0,0,0-3.779-10.149l-3-3.894.177-.127h6.6a7.065,7.065,0,0,0,7.057-7.057V60.7A7.065,7.065,0,0,0,185.866,53.646Zm-28.228,2.823h28.228A4.239,4.239,0,0,1,190.1,60.7V75l-6.274-4.183a1.413,1.413,0,0,0-1.566,0l-7.637,5.091-10.492-7.868a1.41,1.41,0,0,0-1.693,0L153.4,74.816V60.7A4.239,4.239,0,0,1,157.639,56.468ZM130.823,119.98v-4.234h32.764a13.748,13.748,0,0,0,1.377,8.468H135.057A4.239,4.239,0,0,1,130.823,119.98Zm49.084-29.473a12.7,12.7,0,0,1,3.137,8.359v25.348H168.231a10.935,10.935,0,0,1-1.533-9.479,10.589,10.589,0,0,1,1.356-2.9l.635-.945a1.411,1.411,0,0,0-.174-1.785l-9.174-9.174a3.579,3.579,0,0,1,5.061-5.06l12,12,2-2-5.232-5.233V89.051l3.622-2.587Zm5.96-8.634H178.81a1.412,1.412,0,0,0-.82.263l-6.976,4.982.711-3.557a1.411,1.411,0,0,0-1.384-1.688h-12.7a4.229,4.229,0,0,1-4.168-3.579l9.813-7.359,10.444,7.833a1.41,1.41,0,0,0,1.629.046l7.686-5.124,6.986,4.658A4.232,4.232,0,0,1,185.866,81.873Z" transform="translate(-108.241 -42.354)" fill="#1b7bcb"/>
      <path id="Path_9790" data-name="Path 9790" d="M365.646,123.291A5.646,5.646,0,1,0,360,117.646a5.646,5.646,0,0,0,5.646,5.646Zm0-8.468a2.823,2.823,0,1,1-2.823,2.823A2.823,2.823,0,0,1,365.646,114.823Z" transform="translate(-299.311 -95.063)" fill="#1b7bcb"/>
      <path id="Path_9791" data-name="Path 9791" d="M23.057,268.23H45.639a7.065,7.065,0,0,0,7.057-7.057V252.7a7.065,7.065,0,0,0-7.057-7.057H44.624l.972-3.892a1.411,1.411,0,0,0-2.069-1.568l-9.554,5.459H23.057A7.065,7.065,0,0,0,16,252.7v8.468a7.065,7.065,0,0,0,7.057,7.057ZM18.823,252.7a4.239,4.239,0,0,1,4.234-4.234H34.348a1.411,1.411,0,0,0,.7-.186l7.009-4-.609,2.437a1.411,1.411,0,0,0,1.369,1.754h2.823a4.239,4.239,0,0,1,4.234,4.234v8.468a4.239,4.239,0,0,1-4.234,4.234H23.057a4.239,4.239,0,0,1-4.234-4.234Z" transform="translate(-16 -200.484)" fill="#1b7bcb"/>
      <rect id="Rectangle_17881" data-name="Rectangle 17881" width="15.745" height="3.149" transform="translate(6.128 51.788)" fill="#1b7bcb"/>
      <rect id="Rectangle_17882" data-name="Rectangle 17882" width="7.872" height="3.149" transform="translate(23.447 51.788)" fill="#1b7bcb"/>
      <rect id="Rectangle_17883" data-name="Rectangle 17883" width="25.192" height="3.149" transform="translate(6.128 58.086)" fill="#1b7bcb"/>
    </g>
  </g>
</svg>
