<svg xmlns="http://www.w3.org/2000/svg" width="89.164" height="89.175" viewBox="0 0 89.164 89.175">
  <g id="Data_Analysis" data-name="Data Analysis" transform="translate(-8 -7.938)">
    <g id="Group_47476" data-name="Group 47476" transform="translate(8 7.938)">
      <path id="Path_9792" data-name="Path 9792" d="M91.411,29.521H89.543a12.943,12.943,0,1,0-19.274,0H52.582V15.14A1.438,1.438,0,0,0,51.144,13.7H45.391a1.438,1.438,0,0,0-1.438,1.438V29.521H42.515V9.387a1.438,1.438,0,0,0-1.438-1.438H35.324a1.438,1.438,0,0,0-1.438,1.438V29.521H32.448V19.454a1.438,1.438,0,0,0-1.438-1.438H25.257a1.438,1.438,0,0,0-1.438,1.438V29.521H13.752A5.759,5.759,0,0,0,8,35.273V78.417a5.759,5.759,0,0,0,5.752,5.752H43.4l-1.918,5.752H36.762a1.438,1.438,0,0,0-1.438,1.438v2.876H20.943a1.438,1.438,0,1,0,0,2.876H84.22a1.438,1.438,0,0,0,0-2.876H69.839V91.36A1.438,1.438,0,0,0,68.4,89.922H63.686L61.768,84.17H91.411a5.759,5.759,0,0,0,5.752-5.753V35.273A5.759,5.759,0,0,0,91.411,29.521ZM81.344,10.93a10.087,10.087,0,0,1,8.524,8.524H81.344ZM80.5,22.33h9.368A10.06,10.06,0,0,1,73.88,28.951ZM69.839,20.892a10.082,10.082,0,0,1,8.629-9.963V20.3l-6.621,6.621a10.014,10.014,0,0,1-2.008-6.026Zm-23.01-4.314h2.876V43.9H46.829ZM42.515,32.4h1.438V43.9H42.515ZM36.762,10.825h2.876V43.9H36.762ZM32.448,32.4h1.438V43.9H32.448ZM26.7,20.892h2.876V43.9H26.7ZM66.963,92.8v1.438H38.2V92.8ZM44.51,89.922l1.918-5.752H58.735l1.918,5.752Zm49.777-11.5a2.88,2.88,0,0,1-2.876,2.876H13.752a2.88,2.88,0,0,1-2.876-2.876V75.541H94.287Zm0-5.752H10.876V35.273A2.88,2.88,0,0,1,13.752,32.4H23.819V43.9H22.381V35.273a1.438,1.438,0,0,0-1.438-1.438H15.191a1.438,1.438,0,0,0-1.438,1.438V45.34a1.438,1.438,0,0,0,1.438,1.438h46.02a1.438,1.438,0,0,0,1.438-1.438V35.273a1.438,1.438,0,0,0-1.438-1.438H55.458a1.438,1.438,0,0,0-1.438,1.438V43.9H52.582V32.4H73.988a12.9,12.9,0,0,0,11.836,0h5.587a2.88,2.88,0,0,1,2.876,2.876ZM19.5,36.711V43.9H16.629V36.711ZM56.9,43.9V36.711h2.876V43.9Z" transform="translate(-8 -7.938)" fill="#1b7bcb"/>
      <path id="Path_9793" data-name="Path 9793" d="M50.067,392H41.438a1.438,1.438,0,1,0,0,2.876h8.629a1.438,1.438,0,0,0,0-2.876Z" transform="translate(-34.248 -322.959)" fill="#1b7bcb"/>
      <path id="Path_9794" data-name="Path 9794" d="M114.876,392h-1.438a1.438,1.438,0,1,0,0,2.876h1.438a1.438,1.438,0,1,0,0-2.876Z" transform="translate(-93.304 -322.959)" fill="#1b7bcb"/>
      <path id="Path_9795" data-name="Path 9795" d="M337.438,168.629a1.433,1.433,0,0,0,1.017-.421l5.331-5.331h12.348a1.438,1.438,0,0,0,0-2.876H343.19a1.438,1.438,0,0,0-1.017.421l-5.752,5.752a1.438,1.438,0,0,0,1.017,2.455Z" transform="translate(-277.037 -132.665)" fill="#1b7bcb"/>
      <path id="Path_9796" data-name="Path 9796" d="M113.32,250.067a4.314,4.314,0,0,0-3.73,2.152l-15.055-8.783a4.314,4.314,0,0,0-8.469.108L70.915,254.906a4.311,4.311,0,0,0-7.457.392l-14.974-6.24a4.316,4.316,0,1,0-.352,2.968l14.974,6.24a4.313,4.313,0,0,0,8.438-.237L86.7,246.666a4.31,4.31,0,0,0,7.345-.189L109.1,255.26a4.314,4.314,0,1,0,4.224-5.193Zm-67.592.007a1.442,1.442,0,1,1,0-.007ZM67.3,258.7a1.44,1.44,0,0,1-1.438-1.438v-.007A1.438,1.438,0,1,1,67.3,258.7Zm23.01-12.943a1.438,1.438,0,1,1,1.438-1.438A1.438,1.438,0,0,1,90.31,245.753Zm23.01,10.067a1.438,1.438,0,1,1,1.438-1.438A1.438,1.438,0,0,1,113.32,255.819Z" transform="translate(-34.224 -198.283)" fill="#1b7bcb"/>
      <path id="Path_9797" data-name="Path 9797" d="M331.505,344H321.438a1.438,1.438,0,0,0,0,2.876h10.067a1.438,1.438,0,0,0,0-2.876Z" transform="translate(-263.913 -283.588)" fill="#1b7bcb"/>
      <path id="Path_9798" data-name="Path 9798" d="M357.753,320h-4.314a1.438,1.438,0,0,0,0,2.876h4.314a1.438,1.438,0,0,0,0-2.876Z" transform="translate(-290.161 -263.902)" fill="#1b7bcb"/>
      <path id="Path_9799" data-name="Path 9799" d="M41.438,234.876H57.257a1.438,1.438,0,1,0,0-2.876H41.438a1.438,1.438,0,1,0,0,2.876Z" transform="translate(-34.248 -191.721)" fill="#1b7bcb"/>
      <path id="Path_9800" data-name="Path 9800" d="M153.438,234.876h1.438a1.438,1.438,0,0,0,0-2.876h-1.438a1.438,1.438,0,1,0,0,2.876Z" transform="translate(-126.114 -191.721)" fill="#1b7bcb"/>
    </g>
  </g>
</svg>
