<svg xmlns="http://www.w3.org/2000/svg" width="85.904" height="94.967" viewBox="0 0 85.904 94.967">
  <g id="Graphic_design" data-name="Graphic design" transform="translate(-24.43 0)">
    <g id="Group_50080" data-name="Group 50080" transform="translate(24.43 0)">
      <path id="Path_47708" data-name="Path 47708" d="M102.841,12.35h-1.127A8.118,8.118,0,0,0,88.038,3.606L82.187,12.35H31.923a7.5,7.5,0,0,0-7.493,7.493v47.9a7.5,7.5,0,0,0,7.493,7.493h29.1l-2.2,9.236H54.082a5.616,5.616,0,0,0-5.61,5.61v1.171H42.621a1.855,1.855,0,1,0,0,3.71H92.143a1.855,1.855,0,1,0,0-3.71H86.293V90.086a5.616,5.616,0,0,0-5.61-5.61H75.937l-2.2-9.236h29.1a7.5,7.5,0,0,0,7.493-7.493v-47.9a7.5,7.5,0,0,0-7.493-7.493ZM76.266,44.957c-2.9,2.03-8.333-.729-13.521,2.039-1.266-6.576-.468-12.761,6.121-14.126a11.807,11.807,0,0,1,2.549-.242l6.71,4.978c.974,2.832.608,5.624-1.859,7.351Zm1.869-19.881,5.25,3.9-4.038,4.923-4.753-3.527ZM91.121,5.669a4.409,4.409,0,1,1,7.073,5.248L85.74,26.1,80.2,21.989ZM82.583,90.086v1.171h-30.4V90.086a1.9,1.9,0,0,1,1.9-1.9h26.6A1.9,1.9,0,0,1,82.583,90.086Zm-10.46-5.61H62.641l2.2-9.236h5.084Zm34.5-16.729a3.787,3.787,0,0,1-3.783,3.783H31.923a3.787,3.787,0,0,1-3.783-3.783V59.061h5.3a1.855,1.855,0,1,0,0-3.71h-5.3V19.843a3.787,3.787,0,0,1,3.783-3.783H79.7L71.1,28.916a12.673,12.673,0,0,0-9.639,4.072c-3.233,3.774-3.8,9.7-1.688,17.623a1.856,1.856,0,0,0,3.074.863c4.8-4.583,10.769.416,16.118-3.913,3.265-2.643,4.038-6.845,2.807-10.774l17-20.727h4.068a3.787,3.787,0,0,1,3.783,3.783V55.352H48.278a1.855,1.855,0,0,0,0,3.71h58.347Z" transform="translate(-24.43 0)" fill="#1b7bcb"/>
      <path id="Path_47709" data-name="Path 47709" d="M104.526,298.46a1.855,1.855,0,1,0,2.181,1.456A1.853,1.853,0,0,0,104.526,298.46Z" transform="translate(-88.455 -243.072)" fill="#1b7bcb"/>
    </g>
  </g>
</svg>
