<svg xmlns="http://www.w3.org/2000/svg" width="87.828" height="87.829" viewBox="0 0 87.828 87.829">
  <g id="Product_development" data-name="Product development" transform="translate(-0.529 -0.529)">
    <g id="layer1" transform="translate(0.529 0.529)">
      <path id="path13423" d="M16.628,280.6a4.41,4.41,0,0,0-4.389,4.389v46.842a1.465,1.465,0,0,0,2.93,0V295.24H73.714v36.587a1.464,1.464,0,1,0,2.928,0V284.985a4.407,4.407,0,0,0-4.386-4.389Zm0,2.931H72.256a1.42,1.42,0,0,1,1.458,1.458v7.325H15.17v-7.325a1.42,1.42,0,0,1,1.458-1.458Zm2.93,2.925a1.464,1.464,0,1,0,1.464,1.464A1.464,1.464,0,0,0,19.559,286.451Zm5.855,0a1.464,1.464,0,1,0,1.464,1.464A1.464,1.464,0,0,0,25.414,286.451Zm5.855,0a1.464,1.464,0,1,0,1.464,1.464A1.464,1.464,0,0,0,31.269,286.451Zm20.419,0a1.464,1.464,0,0,0,.069,2.928H69.328a1.464,1.464,0,0,0,0-2.928ZM4.926,289.382a4.415,4.415,0,0,0-4.4,4.386v52.7a4.417,4.417,0,0,0,4.4,4.389H83.969a4.409,4.409,0,0,0,4.389-4.389v-52.7a4.407,4.407,0,0,0-4.389-4.386H81.041a1.464,1.464,0,1,0,0,2.928h2.928a1.42,1.42,0,0,1,1.458,1.458v42.456H3.457V293.768a1.43,1.43,0,0,1,1.47-1.458H7.842a1.464,1.464,0,1,0,0-2.928Zm43.926,11.685a1.464,1.464,0,0,0-1.407,1.026L38.66,328.439a1.465,1.465,0,1,0,2.779.929l8.786-26.354a1.464,1.464,0,0,0-1.372-1.947Zm6.364,8.463,7.433,6.2-7.433,6.193a1.465,1.465,0,1,0,1.878,2.247l8.774-7.316a1.464,1.464,0,0,0,0-2.247l-8.774-7.328a1.5,1.5,0,0,0-1.015-.349,1.467,1.467,0,0,0-.863,2.6Zm-22.52-2.6a1.466,1.466,0,0,0-.9.346l-8.783,7.328a1.464,1.464,0,0,0,0,2.247L31.8,324.17a1.464,1.464,0,1,0,1.87-2.247l-7.433-6.193,7.433-6.2a1.464,1.464,0,0,0-.972-2.6ZM3.457,339.154H85.427v7.313a1.42,1.42,0,0,1-1.458,1.458H4.927a1.43,1.43,0,0,1-1.47-1.458Zm43.994,2.925-6.007,0A1.461,1.461,0,0,0,41.513,345h5.858A1.462,1.462,0,1,0,47.451,342.079Zm-11.219,11.59a1.466,1.466,0,0,0-1.367.863,15.168,15.168,0,0,1-4.148,5.106H28.341a4.417,4.417,0,0,0-4.386,4.4v2.916a1.464,1.464,0,0,0,1.458,1.47H63.47a1.464,1.464,0,0,0,1.47-1.47v-2.916a4.427,4.427,0,0,0-4.4-4.4H58.169a15.17,15.17,0,0,1-4.148-5.106,1.464,1.464,0,1,0-2.653,1.238,16.544,16.544,0,0,0,2.616,3.868H34.9a16.548,16.548,0,0,0,2.616-3.868,1.464,1.464,0,0,0-1.287-2.1Zm-7.891,8.9h32.2a1.439,1.439,0,0,1,1.47,1.47V365.5H26.883v-1.458a1.43,1.43,0,0,1,1.458-1.47Z" transform="translate(-0.529 -280.596)" fill="#1b7bcb"/>
    </g>
  </g>
</svg>
