<svg xmlns="http://www.w3.org/2000/svg" width="80.833" height="80.833" viewBox="0 0 80.833 80.833">
  <g id="UI_UX_Designing" data-name="UI_UX Designing" transform="translate(-1 -1)">
    <g id="Group_47469" data-name="Group 47469" transform="translate(1 1)">
      <path id="Path_9778" data-name="Path 9778" d="M49.911,49.823A3.911,3.911,0,1,0,46,45.911,3.916,3.916,0,0,0,49.911,49.823Zm0-5.215a1.3,1.3,0,1,1-1.3,1.3A1.305,1.305,0,0,1,49.911,44.608Z" transform="translate(12.669 11.454)" fill="#1b7bcb"/>
      <path id="Path_9779" data-name="Path 9779" d="M76.827,52.861a2.5,2.5,0,0,1,.533-2.742l1.9-1.9-5.533-5.533-1.9,1.9a2.516,2.516,0,0,1-2.791.511,2.484,2.484,0,0,1-1.541-2.305V40.113H64.818a23.1,23.1,0,0,0-1.155-6.061L78.75,18.964A10.523,10.523,0,1,0,63.87,4.082L48.8,19.155a23.16,23.16,0,0,0-6.15-1.149,10.375,10.375,0,0,0-11.915-4.864A13.012,13.012,0,0,0,6.561,22.2,7.821,7.821,0,0,0,8.823,37.505H18.28a23.64,23.64,0,0,0-.331,3.911,17.9,17.9,0,0,0,1.387,7.2L7.705,60.248,1.233,77.074A3.47,3.47,0,0,0,1,78.33,3.5,3.5,0,0,0,5.76,81.6l16.826-6.472,8.5-8.506A3.811,3.811,0,0,0,32,70.1a3.878,3.878,0,0,0,1.9,6.375,7.941,7.941,0,0,0,15.019,0,3.906,3.906,0,0,0,2.92-3.768c0-.1-.022-.189-.029-.284l1.619,1.619,1.9-1.9a2.553,2.553,0,0,1,4.332,1.8v2.679h7.823V73.939a2.555,2.555,0,0,1,4.334-1.8l1.9,1.9,5.533-5.533-1.9-1.9a2.521,2.521,0,0,1-.512-2.791,2.489,2.489,0,0,1,2.306-1.542h2.679V54.454H79.154a2.508,2.508,0,0,1-2.327-1.593ZM57.291,56.7a38.91,38.91,0,0,0,4.077-4.447,6.442,6.442,0,0,1,2.212-.411A6.582,6.582,0,1,1,57.291,56.7Zm1.566-30.883,6.027-6.029,4.675,4.675L62.6,31.431A23.661,23.661,0,0,0,58.857,25.821ZM60.209,11.43l2.068-2.068L73.471,20.556,71.4,22.624Zm11.1-7.823a7.915,7.915,0,0,1,5.6,13.512l-1.593,1.593L64.12,7.519l1.593-1.593A7.867,7.867,0,0,1,71.31,3.608ZM58.365,13.274l4.675,4.675-6.025,6.025a23.634,23.634,0,0,0-5.607-3.743Zm3.911,28.143c0,6.783-3.416,10.116-7.032,13.643-2.49,2.429-5.048,4.94-6.537,8.6a3.855,3.855,0,0,0-.772-.078H42.72V57.062a3.916,3.916,0,0,0-3.911-3.911H36.2a1.3,1.3,0,1,1,0-2.608H49.239a3.911,3.911,0,1,0,0-7.823H38.809a1.305,1.305,0,0,1-1.3-1.3V37.505h6.519a6.519,6.519,0,1,0,0-13.038c-.037,0-.07.01-.107.01a10.265,10.265,0,0,0,.107-1.314,10.444,10.444,0,0,0-.308-2.472A20.971,20.971,0,0,1,62.277,41.417ZM33.594,67.492a1.305,1.305,0,0,1,1.3-1.3H47.935a1.3,1.3,0,1,1,0,2.608H34.9A1.305,1.305,0,0,1,33.594,67.492Zm-16.409,0,9.584-9.584a23.666,23.666,0,0,1,4.19,5.159l-9.1,9.1ZM3.608,29.683a5.215,5.215,0,0,1,10.43,0h2.608a7.825,7.825,0,0,0-7.489-7.806,10.42,10.42,0,0,1,19.182-7.708,10.438,10.438,0,0,0-5.109,7.855,5.214,5.214,0,0,0-3.976,5.051H21.86a2.608,2.608,0,0,1,5.215,0h2.608a5.207,5.207,0,0,0-3.827-5,7.813,7.813,0,1,1,15.274,3.1,6.505,6.505,0,0,0-3.624,5.811h2.608A3.911,3.911,0,1,1,44.024,34.9H8.823A5.22,5.22,0,0,1,3.608,29.683ZM34.9,37.505v3.911a3.916,3.916,0,0,0,3.911,3.911h10.43a1.3,1.3,0,0,1,0,2.608H36.2a3.911,3.911,0,1,0,0,7.823h2.608a1.305,1.305,0,0,1,1.3,1.3V63.58H34.9a3.855,3.855,0,0,0-.772.078c-1.489-3.66-4.047-6.171-6.537-8.6-3.617-3.527-7.032-6.859-7.032-13.643a21.017,21.017,0,0,1,.4-3.911ZM24.907,56.082l-9.566,9.566-4.675-4.675,9.948-9.948a29.328,29.328,0,0,0,4.293,5.057ZM9.319,63.313l10.2,10.2-8.636,3.322L6,71.949ZM4.825,79.166a.9.9,0,0,1-1.159-1.156l1.306-3.4L8.22,77.859Zm36.591.06a5.357,5.357,0,0,1-4.594-2.608h9.189a5.357,5.357,0,0,1-4.594,2.608Zm6.519-5.215H34.9a1.3,1.3,0,1,1,0-2.608H47.935a1.3,1.3,0,0,1,0,2.608Zm31.29-14.341h-.072a5.163,5.163,0,0,0-3.639,8.785l.055.055-1.846,1.846-.055-.055a5.162,5.162,0,0,0-8.785,3.639v.072H62.277v-.072A5.163,5.163,0,0,0,53.491,70.3l-.055.055-1.767-1.767a3.821,3.821,0,0,0,.177-1.1,3.874,3.874,0,0,0-.876-2.437A16.814,16.814,0,0,1,54.532,59.5,9.123,9.123,0,1,0,63.58,49.239c-.128,0-.252.013-.378.018a17.106,17.106,0,0,0,1.641-6.537h.04v.072a5.162,5.162,0,0,0,8.785,3.639l.055-.055,1.846,1.846-.055.055a5.162,5.162,0,0,0,3.639,8.785h.072Z" transform="translate(-1 -1)" fill="#1b7bcb"/>
    </g>
  </g>
</svg>
