<svg xmlns="http://www.w3.org/2000/svg" xmlns:xlink="http://www.w3.org/1999/xlink" width="48.673" height="50.412" viewBox="0 0 48.673 50.412">
  <defs>
    <linearGradient id="linear-gradient" x1="0.5" x2="0.5" y2="1" gradientUnits="objectBoundingBox">
      <stop offset="0" stop-color="#2597dc"/>
      <stop offset="1" stop-color="#1f7bb5"/>
    </linearGradient>
  </defs>
  <g id="code" transform="translate(-32 -32)">
    <g id="SOLID" transform="translate(32 32)">
      <path id="Path_47685" data-name="Path 47685" d="M174.129,416h-7.4l-2.086,6.953H160v1.738h20.86v-1.738h-4.645Z" transform="translate(-146.093 -374.28)" fill="url(#linear-gradient)"/>
      <path id="Path_47686" data-name="Path 47686" d="M32,370.607a.87.87,0,0,0,.869.869H79.8a.87.87,0,0,0,.869-.869V368H32Z" transform="translate(-32 -331.495)" fill="url(#linear-gradient)"/>
      <path id="Path_47687" data-name="Path 47687" d="M218.944,139.477H207.5a2.59,2.59,0,0,1-1.844-.764l-2.458-2.458a.863.863,0,0,0-.615-.255h-9.71a.87.87,0,0,0-.869.869v18.253a.87.87,0,0,0,.869.869h26.075a.87.87,0,0,0,.869-.869V140.346A.87.87,0,0,0,218.944,139.477ZM201.306,151.03l-1.229,1.229-4.96-4.96,4.96-4.96,1.229,1.229-3.731,3.731Zm3.622,1.037-1.52-.844,4.346-7.823,1.52.844Zm6.808.193-1.229-1.229,3.731-3.731-3.731-3.731,1.229-1.229,4.96,4.96Z" transform="translate(-174.617 -124.701)" fill="url(#linear-gradient)"/>
      <path id="Path_47688" data-name="Path 47688" d="M79.8,32H32.869a.87.87,0,0,0-.869.869v33.9H80.673v-33.9A.87.87,0,0,0,79.8,32ZM46.293,55.614l-.774,1.557a8.695,8.695,0,0,1,0-15.575l.774,1.557a6.956,6.956,0,0,0,0,12.462ZM43.7,40.046l-3.322-1.328-1.658,1.658L40.046,43.7,38.76,46.8l-3.283,1.407v2.345l3.283,1.407,1.286,3.1L38.718,58.39l1.658,1.658L43.7,58.721l2.54,1.053-.666,1.606L43.687,60.6l-3.729,1.49-3.279-3.279,1.49-3.729-.745-1.8L33.738,51.7V47.065l3.686-1.58.745-1.8-1.49-3.729,3.279-3.279,3.729,1.49,1.8-.745,1.58-3.686H51.7l1.58,3.686,1.8.745,3.729-1.49,2.529,2.529-1.229,1.229L58.39,38.718l-3.322,1.328-3.1-1.286-1.408-3.283H48.211L46.8,38.76ZM78.935,62.421a2.61,2.61,0,0,1-2.607,2.608H50.253a2.61,2.61,0,0,1-2.608-2.608V44.168a2.61,2.61,0,0,1,2.608-2.608h9.71a2.59,2.59,0,0,1,1.844.764l2.458,2.458a.863.863,0,0,0,.615.255H76.327a2.61,2.61,0,0,1,2.607,2.608Z" transform="translate(-32 -32)" fill="url(#linear-gradient)"/>
    </g>
  </g>
</svg>
