<svg xmlns="http://www.w3.org/2000/svg" xmlns:xlink="http://www.w3.org/1999/xlink" width="55.579" height="34.959" viewBox="0 0 55.579 34.959">
  <defs>
    <linearGradient id="linear-gradient" x1="0.5" x2="0.5" y2="1" gradientUnits="objectBoundingBox">
      <stop offset="0" stop-color="#2597dc"/>
      <stop offset="1" stop-color="#1f7cb6"/>
    </linearGradient>
  </defs>
  <g id="people" transform="translate(0 -0.004)">
    <path id="Path_47695" data-name="Path 47695" d="M14.731,169.044c.172-.26.349-.514.538-.763l.386-.506-.452-.263a10.225,10.225,0,0,0-5.148-1.379A9.938,9.938,0,0,0,0,175.926v3.009a1.026,1.026,0,0,0,1.04,1.009H12.29V177.1c0-.328.015-.675.046-1.091l.015-.2c.033-.373.079-.739.136-1.084l.009-.048c.063-.374.142-.751.24-1.143.093-.364.2-.734.328-1.1l-.443-.146.47.068a14.664,14.664,0,0,1,.9-2.057l.077-.145c.164-.3.34-.6.524-.889Zm0,0" transform="translate(0 -147.514)" fill="url(#linear-gradient)"/>
    <path id="Path_47696" data-name="Path 47696" d="M47.6,61.775A5.178,5.178,0,1,0,42.281,56.6,5.254,5.254,0,0,0,47.6,61.775Zm0,0" transform="translate(-37.544 -45.657)" fill="url(#linear-gradient)"/>
    <path id="Path_47697" data-name="Path 47697" d="M154.05,156.12c-.009-.141-.019-.281-.033-.421-.009-.094-.022-.186-.034-.28-.015-.125-.03-.249-.049-.372-.014-.1-.032-.192-.049-.288-.021-.12-.042-.241-.066-.36-.019-.093-.04-.185-.061-.278-.027-.122-.056-.244-.086-.364-.022-.086-.046-.172-.07-.257-.035-.128-.072-.255-.112-.381-.024-.076-.049-.151-.073-.227q-.068-.2-.141-.407c-.024-.063-.047-.126-.071-.189-.057-.148-.116-.294-.179-.439-.021-.049-.041-.1-.063-.145q-.106-.24-.221-.475l-.048-.1q-.128-.257-.268-.509l-.029-.054q-.154-.274-.32-.54l-.006-.01a14.068,14.068,0,0,0-22.52-1.614l-.057.067q-.175.208-.341.423l-.075.1c-.1.132-.2.266-.294.4-.032.046-.065.091-.1.138-.083.121-.163.244-.242.368-.039.062-.08.123-.118.186-.065.105-.126.212-.188.318-.048.083-.1.165-.142.248s-.084.158-.126.239c-.059.112-.118.223-.174.337l-.011.023a13.3,13.3,0,0,0-.823,2.154l-.023.078c-.043.156-.083.313-.12.47-.012.049-.024.1-.035.145-.033.144-.063.288-.091.433-.013.067-.025.134-.037.2-.023.132-.045.263-.064.4q-.019.132-.035.265c-.014.116-.029.232-.04.348s-.02.239-.028.358c-.006.09-.014.18-.019.271-.01.214-.017.429-.017.646v4.233a1.168,1.168,0,0,0,1.187,1.146H152.9a1.168,1.168,0,0,0,1.187-1.146v-4.232q0-.335-.018-.666C154.063,156.279,154.055,156.2,154.05,156.12Zm0,0" transform="translate(-112.197 -127.438)" fill="url(#linear-gradient)"/>
    <path id="Path_47698" data-name="Path 47698" d="M193.574,13.169a6.683,6.683,0,0,0,6.765-6.583,6.768,6.768,0,0,0-13.53,0A6.684,6.684,0,0,0,193.574,13.169Zm0,0" transform="translate(-165.876 0)" fill="url(#linear-gradient)"/>
    <path id="Path_47699" data-name="Path 47699" d="M358.938,159.918a10.219,10.219,0,0,0-5.537,1.62l-.436.28.33.4a14.848,14.848,0,0,1,1.889,2.9l.023.047c.095.193.186.39.275.591l.033.075c.083.194.162.389.251.621l.017.043c.169.452.315.909.434,1.36l.028.112c.047.183.091.366.131.552l.048.239c.029.147.056.293.081.442.015.09.028.18.042.27.021.143.04.286.056.432.01.09.021.18.03.27.015.155.026.312.036.468l.016.236c.011.235.019.471.019.708v2.149h11.25a1.027,1.027,0,0,0,1.04-1.01V169.71a9.938,9.938,0,0,0-10.055-9.792Zm0,0" transform="translate(-313.414 -141.995)" fill="url(#linear-gradient)"/>
    <path id="Path_47700" data-name="Path 47700" d="M364.138,57.72a5.178,5.178,0,1,0-5.317-5.176A5.254,5.254,0,0,0,364.138,57.72Zm0,0" transform="translate(-318.614 -42.056)" fill="url(#linear-gradient)"/>
  </g>
</svg>
