<svg xmlns="http://www.w3.org/2000/svg" xmlns:xlink="http://www.w3.org/1999/xlink" width="43.362" height="56.411" viewBox="0 0 43.362 56.411">
  <defs>
    <linearGradient id="linear-gradient" x1="0.5" x2="0.5" y2="1" gradientUnits="objectBoundingBox">
      <stop offset="0" stop-color="#2597dc"/>
      <stop offset="1" stop-color="#1f7bb5"/>
    </linearGradient>
  </defs>
  <g id="star_2_" data-name="star (2)" transform="translate(-3.693 0)">
    <g id="Group_50026" data-name="Group 50026" transform="translate(3.693 -0.001)">
      <g id="Group_50025" data-name="Group 50025">
        <path id="Path_47701" data-name="Path 47701" d="M7.7,22.063,3.8,33.128A1.821,1.821,0,0,0,6.091,35.46l5.789-1.932,3.3,5.141a1.82,1.82,0,0,0,3.25-.376L22.4,27.045l-4.95-4.307Z" transform="translate(-3.693 16.903)" fill="url(#linear-gradient)"/>
        <path id="Path_47702" data-name="Path 47702" d="M32.356,22.063l-9.743.673-4.95,4.313L21.629,38.29a1.818,1.818,0,0,0,3.248.38l3.292-5.141,5.791,1.932a1.818,1.818,0,0,0,2.291-2.333Z" transform="translate(7.008 16.903)" fill="url(#linear-gradient)"/>
        <path id="Path_47703" data-name="Path 47703" d="M37.046,36.014a3.611,3.611,0,0,0,3.348-3.348l.387-5.593,3.677-4.226a3.6,3.6,0,0,0,0-4.733l-3.681-4.228L40.394,8.3a3.6,3.6,0,0,0-3.348-3.347l-5.591-.387L27.225.885a3.6,3.6,0,0,0-4.733,0L18.265,4.566l-5.591.385A3.6,3.6,0,0,0,9.329,8.3l-.389,5.591L5.262,18.117a3.6,3.6,0,0,0,0,4.731l3.679,4.226.387,5.593a3.606,3.606,0,0,0,3.347,3.345l5.6.389L22.5,40.08a3.6,3.6,0,0,0,4.731,0L31.455,36.4ZM30.04,24.425l.406,3.716c.076.7-.385,1.031-1.017.744l-3.41-1.542a3.235,3.235,0,0,0-2.324,0l-3.405,1.542c-.639.288-1.1-.046-1.019-.744l.408-3.716a3.208,3.208,0,0,0-.715-2.211l-2.52-2.764c-.472-.516-.295-1.058.39-1.2l3.663-.756a3.218,3.218,0,0,0,1.881-1.365l1.849-3.248a.66.66,0,0,1,1.257,0l1.853,3.248a3.2,3.2,0,0,0,1.877,1.365l3.663.756c.687.143.858.683.39,1.2l-2.518,2.764A3.208,3.208,0,0,0,30.04,24.425Z" transform="translate(-3.169 0.001)" fill="url(#linear-gradient)"/>
      </g>
    </g>
  </g>
</svg>
