<svg id="Inastagram" xmlns="http://www.w3.org/2000/svg" width="19.734" height="19.733" viewBox="0 0 19.734 19.733">
  <path id="Path_5733" data-name="Path 5733" d="M14.391,0H5.341A5.348,5.348,0,0,0,0,5.342v9.05a5.348,5.348,0,0,0,5.342,5.342h9.05a5.348,5.348,0,0,0,5.342-5.342V5.342A5.348,5.348,0,0,0,14.391,0Zm4.185,14.392a4.19,4.19,0,0,1-4.185,4.185H5.341a4.19,4.19,0,0,1-4.185-4.185V5.342A4.19,4.19,0,0,1,5.341,1.157h9.05a4.19,4.19,0,0,1,4.185,4.185Zm0,0" transform="translate(0.001 0)" fill="#fff"/>
  <path id="Path_5734" data-name="Path 5734" d="M121.4,116a5.4,5.4,0,1,0,5.4,5.4A5.4,5.4,0,0,0,121.4,116Zm0,9.635a4.239,4.239,0,1,1,4.239-4.239A4.244,4.244,0,0,1,121.4,125.639Zm0,0" transform="translate(-111.533 -111.533)" fill="#fff"/>
  <path id="Path_5735" data-name="Path 5735" d="M359.571,66.285a1.594,1.594,0,1,0,1.595,1.594A1.6,1.6,0,0,0,359.571,66.285Zm0,2.032a.438.438,0,1,1,.438-.438A.438.438,0,0,1,359.571,68.317Zm0,0" transform="translate(-344.179 -63.73)" fill="#fff"/>
</svg>
