<svg id="linkedin" xmlns="http://www.w3.org/2000/svg" width="15.667" height="15.667" viewBox="0 0 15.667 15.667">
  <g id="_x31_0.Linkedin" transform="translate(0 0)">
    <path id="Path_5736" data-name="Path 5736" d="M48.425,46.012V40.274c0-2.82-.607-4.974-3.9-4.974a3.4,3.4,0,0,0-3.075,1.684h-.039v-1.43H38.3V46.012h3.251v-5.19c0-1.371.255-2.683,1.939-2.683,1.665,0,1.684,1.547,1.684,2.761v5.092h3.251Z" transform="translate(-32.758 -30.345)" fill="#fff"/>
    <path id="Path_5737" data-name="Path 5737" d="M11.3,36.6h3.251V47.058H11.3Z" transform="translate(-11.045 -31.391)" fill="#fff"/>
    <path id="Path_5738" data-name="Path 5738" d="M11.88,10a1.89,1.89,0,1,0,1.88,1.88A1.881,1.881,0,0,0,11.88,10Z" transform="translate(-10 -10)" fill="#fff"/>
  </g>
</svg>
