<svg xmlns="http://www.w3.org/2000/svg" width="105.571" height="109.323" viewBox="0 0 105.571 109.323">
  <g id="Cyber_securitys" data-name="Cyber securitys" transform="translate(-8.786)">
    <g id="Group_47427" data-name="Group 47427" transform="translate(8.786 0)">
      <path id="Path_9751" data-name="Path 9751" d="M122.46,65.741V58.087a2.871,2.871,0,0,0-1.087-2.256L108.81,45.825V27.331a3.576,3.576,0,0,0-3.54-3.566l-3.214-.023V21.5L117.609,5.942a3.018,3.018,0,1,0-2.266-2.266L99.7,19.323a2.866,2.866,0,0,0-.845,2.039v2.317a50.556,50.556,0,0,1-5.6-.537V15.48l9.539-9.538a3.017,3.017,0,1,0-2.266-2.266l-9.633,9.633a2.866,2.866,0,0,0-.844,2.039v7.173a32.594,32.594,0,0,1-6.2-2.1V5.553a3.009,3.009,0,1,0-3.2,0V18.648a17.393,17.393,0,0,1-2.707-2.171,23.254,23.254,0,0,1-2.215-2.567,5.154,5.154,0,0,0-4.16-2.1H71.55A5.173,5.173,0,0,0,67.377,13.9a24.28,24.28,0,0,1-2.24,2.578,18.469,18.469,0,0,1-3.38,2.628V5.553a3.009,3.009,0,1,0-3.2,0V20.761a33.384,33.384,0,0,1-6.44,1.989v-7.4a2.866,2.866,0,0,0-.845-2.04L41.635,3.676a3.019,3.019,0,1,0-2.266,2.266l9.538,9.538v7.807a53.674,53.674,0,0,1-5.6.426V21.362a2.865,2.865,0,0,0-.845-2.039L26.819,3.676a3.019,3.019,0,1,0-2.266,2.266L40.106,21.5v2.253l-2.3.017a3.576,3.576,0,0,0-3.541,3.566v2.141a1.6,1.6,0,1,0,3.2,0V27.331a.362.362,0,0,1,.359-.361l4.342-.032c8.407-.061,14.389-1.7,18.551-3.65a1.611,1.611,0,0,0,.255-.124A23.343,23.343,0,0,0,67.4,18.743a27.486,27.486,0,0,0,2.537-2.92,2,2,0,0,1,1.61-.806h0a1.977,1.977,0,0,1,1.6.8,26.494,26.494,0,0,0,2.521,2.921c2.427,2.426,9.743,8.083,25.233,8.2l4.342.032a.363.363,0,0,1,.359.361V51.179a39.226,39.226,0,0,1-3.976,17.157c-.558,1.139-1.181,2.267-1.854,3.352a1.6,1.6,0,1,0,2.724,1.688c.728-1.175,1.4-2.4,2.008-3.631a42.131,42.131,0,0,0,2.738-7.219l3.45,2.608V87.757a3.009,3.009,0,1,0,3.2,0V64.974a2.9,2.9,0,0,0-1.145-2.3l-4.708-3.559a42.148,42.148,0,0,0,.762-7.936V49.922l10.445,8.319v7.5a3.009,3.009,0,1,0,3.2,0Z" transform="translate(-18.295 0)" fill="#58f2e4"/>
      <path id="Path_9752" data-name="Path 9752" d="M89.394,232.7V217.668a2.866,2.866,0,0,0-.845-2.04l-3.713-3.713a42.429,42.429,0,0,0,4.128-4.141,1.6,1.6,0,1,0-2.421-2.1A39.017,39.017,0,0,1,81,210.926L66.721,222.012a7.693,7.693,0,0,1-4.693,1.608,7.588,7.588,0,0,1-4.693-1.608L43.052,210.926A39.01,39.01,0,0,1,27.96,180.11V165.536a1.6,1.6,0,0,0-3.2,0v8.493L11.28,184.761a2.869,2.869,0,0,0-1.087,2.256v7.654a3.007,3.007,0,0,0,1.6,5.553,2.949,2.949,0,0,0,2.938-3.009,3.011,3.011,0,0,0-1.336-2.531v-7.513l11.358-9.046v1.984a42.088,42.088,0,0,0,.649,7.331L19.9,191.6a2.9,2.9,0,0,0-1.144,2.3v22.783a3.007,3.007,0,0,0,1.6,5.553,2.949,2.949,0,0,0,2.938-3.009,3.011,3.011,0,0,0-1.336-2.531V194.064l4.205-3.179a42.039,42.039,0,0,0,12.576,20.6l-4.144,4.143a2.866,2.866,0,0,0-.845,2.04V232.7a3.009,3.009,0,1,0,3.2,0V217.8l4.252-4.252,14.165,10.994a10.854,10.854,0,0,0,13.315,0l13.651-10.595L86.19,217.8v14.9a3.009,3.009,0,1,0,3.2,0Z" transform="translate(-8.786 -128.931)" fill="#58f2e4"/>
      <circle id="Ellipse_154" data-name="Ellipse 154" cx="1.836" cy="1.836" r="1.836" transform="translate(51.406 88.465)" fill="#58f2e4"/>
      <path id="Path_9753" data-name="Path 9753" d="M253.212,92.217a1.836,1.836,0,1,0-1.836,1.836A1.836,1.836,0,0,0,253.212,92.217Z" transform="translate(-198.134 -71.083)" fill="#58f2e4"/>
      <circle id="Ellipse_155" data-name="Ellipse 155" cx="1.836" cy="1.836" r="1.836" transform="translate(80.877 30.114)" fill="#58f2e4"/>
      <circle id="Ellipse_156" data-name="Ellipse 156" cx="1.836" cy="1.836" r="1.836" transform="translate(21.716 30.114)" fill="#58f2e4"/>
      <path id="Path_9754" data-name="Path 9754" d="M176.4,171.274a1.6,1.6,0,0,0-1.6,1.6v7.146a5.332,5.332,0,0,0,5.326,5.326h24.938a5.332,5.332,0,0,0,5.326-5.326V163.776a5.334,5.334,0,0,0-3.3-4.923v-5.975a14.961,14.961,0,1,0-29.921,0v6.468a5.325,5.325,0,0,0-2.373,4.43v1.5a1.6,1.6,0,1,0,3.2,0v-1.5a2.124,2.124,0,0,1,2.121-2.122h24.938a2.124,2.124,0,0,1,2.121,2.122v16.246a2.124,2.124,0,0,1-2.121,2.121H180.124A2.124,2.124,0,0,1,178,180.022v-7.146a1.6,1.6,0,0,0-1.6-1.6Zm15.731-30.152a11.769,11.769,0,0,1,11.756,11.756v5.572h-2.868v-5.572a8.888,8.888,0,0,0-17.775,0v5.572h-2.868v-5.572A11.769,11.769,0,0,1,192.131,141.122Zm5.683,17.328H186.449v-5.572a5.683,5.683,0,0,1,11.366,0Z" transform="translate(-139.351 -108.469)" fill="#58f2e4"/>
      <path id="Path_9755" data-name="Path 9755" d="M245.06,286.252h1.832a.422.422,0,0,0,.422-.422v-3.172a.283.283,0,0,1,.16-.258,3.541,3.541,0,1,0-3,0,.282.282,0,0,1,.166.254v3.179A.422.422,0,0,0,245.06,286.252Z" transform="translate(-192.546 -216.794)" fill="#58f2e4"/>
    </g>
  </g>
</svg>
