<svg id="Digital_experience" data-name="Digital experience" xmlns="http://www.w3.org/2000/svg" width="95.979" height="95.968" viewBox="0 0 95.979 95.968">
  <g id="Page-1">
    <g id="_027---Good-User-Experience" data-name="027---Good-User-Experience">
      <path id="Shape" d="M79.983,52.133V6.4a6.4,6.4,0,0,0-6.4-6.4H6.4A6.4,6.4,0,0,0,0,6.4V83.182a6.4,6.4,0,0,0,6.4,6.4H57.941A22.382,22.382,0,1,0,79.983,52.133ZM6.4,3.2H73.584a3.2,3.2,0,0,1,3.2,3.2V19.2H3.2V6.4A3.2,3.2,0,0,1,6.4,3.2ZM3.2,83.182V22.4H76.783v29.05A22.352,22.352,0,0,0,55.231,86.381H6.4a3.2,3.2,0,0,1-3.2-3.2Zm70.385,9.6a19.2,19.2,0,1,1,19.2-19.2A19.2,19.2,0,0,1,73.584,92.78Z" fill="#58f2e4"/>
      <path id="Shape-2" data-name="Shape" d="M8.8,13.6A4.8,4.8,0,1,0,4,8.8,4.8,4.8,0,0,0,8.8,13.6Zm0-6.4A1.6,1.6,0,1,1,7.2,8.8,1.6,1.6,0,0,1,8.8,7.2Z" transform="translate(2.399 2.399)" fill="#58f2e4"/>
      <path id="Shape-3" data-name="Shape" d="M16.8,13.6A4.8,4.8,0,1,0,12,8.8,4.8,4.8,0,0,0,16.8,13.6Zm0-6.4a1.6,1.6,0,1,1-1.6,1.6A1.6,1.6,0,0,1,16.8,7.2Z" transform="translate(7.196 2.399)" fill="#58f2e4"/>
      <path id="Shape-4" data-name="Shape" d="M34.8,13.6h16a4.8,4.8,0,0,0,0-9.6h-16a4.8,4.8,0,1,0,0,9.6Zm0-6.4h16a1.6,1.6,0,1,1,0,3.2h-16a1.6,1.6,0,0,1,0-3.2Z" transform="translate(17.99 2.399)" fill="#58f2e4"/>
      <path id="Shape-5" data-name="Shape" d="M22.4,33a6.4,6.4,0,0,0,6.4-6.4v-8a1.6,1.6,0,1,0-3.2,0v8a3.2,3.2,0,0,1-6.4,0v-8a1.6,1.6,0,0,0-3.2,0v8A6.4,6.4,0,0,0,22.4,33Z" transform="translate(9.594 10.194)" fill="#58f2e4"/>
      <path id="Shape-6" data-name="Shape" d="M26.64,32.677a1.6,1.6,0,0,0,2.24-.32L32.4,27.665l3.519,4.692a1.6,1.6,0,0,0,2.559-1.92L34.4,25l4.079-5.439a1.6,1.6,0,0,0-2.559-1.92L32.4,22.332,28.879,17.64a1.6,1.6,0,0,0-2.559,1.92L30.4,25,26.32,30.437a1.6,1.6,0,0,0,.32,2.24Z" transform="translate(15.591 10.194)" fill="#58f2e4"/>
      <path id="Shape-7" data-name="Shape" d="M8.8,49.2H21.6a4.8,4.8,0,0,0,4.8-4.8V34.8A4.8,4.8,0,0,0,21.6,30H8.8A4.8,4.8,0,0,0,4,34.8v9.6A4.8,4.8,0,0,0,8.8,49.2ZM7.2,44.4V35.013L20.374,46H8.8A1.6,1.6,0,0,1,7.2,44.4Zm16-9.6v9.384L10.021,33.2H21.6A1.6,1.6,0,0,1,23.2,34.8Z" transform="translate(2.399 17.99)" fill="#58f2e4"/>
      <path id="Shape-8" data-name="Shape" d="M20,31.6a1.6,1.6,0,0,0,1.6,1.6H47.194a1.6,1.6,0,0,0,0-3.2H21.6A1.6,1.6,0,0,0,20,31.6Z" transform="translate(11.993 17.99)" fill="#58f2e4"/>
      <path id="Shape-9" data-name="Shape" d="M43.991,44H5.6a1.6,1.6,0,1,0,0,3.2H43.991a1.6,1.6,0,1,0,0-3.2Z" transform="translate(2.399 26.385)" fill="#58f2e4"/>
      <path id="Shape-10" data-name="Shape" d="M34.393,48H5.6a1.6,1.6,0,0,0,0,3.2H34.393a1.6,1.6,0,1,0,0-3.2Z" transform="translate(2.399 28.783)" fill="#58f2e4"/>
      <path id="Shape-11" data-name="Shape" d="M39.2,35H21.6a1.6,1.6,0,1,0,0,3.2H39.2a1.6,1.6,0,1,0,0-3.2Z" transform="translate(11.993 20.988)" fill="#58f2e4"/>
      <path id="Shape-12" data-name="Shape" d="M36,40H21.6a1.6,1.6,0,1,0,0,3.2H36A1.6,1.6,0,1,0,36,40Z" transform="translate(11.993 23.986)" fill="#58f2e4"/>
      <path id="Shape-13" data-name="Shape" d="M49.8,45.4a6.4,6.4,0,1,0-6.4,6.4A6.4,6.4,0,0,0,49.8,45.4Zm-9.6,0A3.2,3.2,0,1,1,45,48.153V47a1.6,1.6,0,1,0-3.2,0v1.155A3.188,3.188,0,0,1,40.2,45.4Z" transform="translate(22.187 23.386)" fill="#58f2e4"/>
      <path id="Shape-14" data-name="Shape" d="M53.4,39a6.4,6.4,0,1,0,6.4,6.4A6.4,6.4,0,0,0,53.4,39ZM55,48.153V47a1.6,1.6,0,1,0-3.2,0v1.155a3.2,3.2,0,1,1,3.2,0Z" transform="translate(28.184 23.386)" fill="#58f2e4"/>
      <path id="Shape-15" data-name="Shape" d="M53.8,49H44.2A3.2,3.2,0,0,0,41,52.2a8,8,0,0,0,16,0A3.2,3.2,0,0,0,53.8,49ZM49,57a4.8,4.8,0,0,1-4.8-4.8h9.6A4.8,4.8,0,0,1,49,57Z" transform="translate(24.586 29.383)" fill="#58f2e4"/>
    </g>
  </g>
</svg>
