<svg xmlns="http://www.w3.org/2000/svg" width="98" height="97.999" viewBox="0 0 98 97.999">
  <g id="Manage_IT_services" data-name="Manage IT services" transform="translate(-2 -2)">
    <path id="Path_9757" data-name="Path 9757" d="M2.131,57.283A1.632,1.632,0,0,0,3.414,58.75l5.692,1.228a25.8,25.8,0,0,0,.764,2.862l-4.309,3.9a1.633,1.633,0,0,0-.377,1.913,32.66,32.66,0,0,0,2.607,4.549,1.633,1.633,0,0,0,1.844.626l5.532-1.782a26.17,26.17,0,0,0,2.107,2.107l-1.782,5.532a1.633,1.633,0,0,0,.626,1.844,32.661,32.661,0,0,0,4.549,2.607,1.635,1.635,0,0,0,1.913-.377l3.9-4.309a26.292,26.292,0,0,0,2.863.764l1.228,5.692a1.636,1.636,0,0,0,1.465,1.284c.869.069,1.74.131,2.626.131s1.757-.062,2.626-.131a1.632,1.632,0,0,0,1.467-1.284l1.228-5.692a25.831,25.831,0,0,0,2.863-.764l3.9,4.309a1.631,1.631,0,0,0,1.913.377,32.825,32.825,0,0,0,4.549-2.607,1.633,1.633,0,0,0,.626-1.844L52.06,74.156a26.419,26.419,0,0,0,2.107-2.105L59.7,73.832a1.631,1.631,0,0,0,1.844-.626,32.661,32.661,0,0,0,2.607-4.549,1.633,1.633,0,0,0-.377-1.913l-4.309-3.9a26.293,26.293,0,0,0,.764-2.863l5.692-1.228A1.636,1.636,0,0,0,67.2,57.285c.067-.871.129-1.741.129-2.628s-.062-1.757-.131-2.626a1.632,1.632,0,0,0-1.284-1.467l-5.692-1.228a25.832,25.832,0,0,0-.764-2.863l4.309-3.9a1.633,1.633,0,0,0,.377-1.913,32.825,32.825,0,0,0-2.607-4.549,1.631,1.631,0,0,0-1.844-.626l-5.532,1.782a26.169,26.169,0,0,0-2.107-2.107l1.782-5.532a1.633,1.633,0,0,0-.626-1.844,32.661,32.661,0,0,0-4.549-2.607,1.63,1.63,0,0,0-1.913.377l-3.9,4.309a26.3,26.3,0,0,0-2.863-.764L38.758,23.4a1.636,1.636,0,0,0-1.465-1.284,33.2,33.2,0,0,0-5.254,0A1.632,1.632,0,0,0,30.572,23.4L29.344,29.1a25.8,25.8,0,0,0-2.862.764l-3.9-4.309a1.632,1.632,0,0,0-1.913-.377,32.66,32.66,0,0,0-4.549,2.607,1.633,1.633,0,0,0-.626,1.844l1.782,5.532a26.17,26.17,0,0,0-2.107,2.107l-5.53-1.782a1.629,1.629,0,0,0-1.844.626,32.66,32.66,0,0,0-2.607,4.549,1.633,1.633,0,0,0,.377,1.913l4.309,3.9a26.3,26.3,0,0,0-.764,2.863L3.414,50.564a1.636,1.636,0,0,0-1.284,1.465C2.062,52.9,2,53.77,2,54.657s.062,1.757.131,2.626ZM5.3,53.5l5.557-1.2a1.634,1.634,0,0,0,1.267-1.334,22.77,22.77,0,0,1,1.174-4.4,1.632,1.632,0,0,0-.431-1.789l-4.2-3.8c.366-.7.748-1.372,1.143-2.007L15.2,40.705a1.64,1.64,0,0,0,1.766-.519A22.965,22.965,0,0,1,20.2,36.955a1.631,1.631,0,0,0,.519-1.766L18.98,29.806q.953-.6,2.007-1.143l3.8,4.2a1.635,1.635,0,0,0,1.79.431,22.66,22.66,0,0,1,4.394-1.174,1.634,1.634,0,0,0,1.334-1.267l1.2-5.557a21.512,21.512,0,0,1,2.318,0l1.2,5.557a1.634,1.634,0,0,0,1.334,1.267,22.77,22.77,0,0,1,4.4,1.174,1.631,1.631,0,0,0,1.788-.431l3.8-4.2c.7.366,1.372.748,2.007,1.143l-1.735,5.383a1.635,1.635,0,0,0,.519,1.766,22.965,22.965,0,0,1,3.231,3.231,1.628,1.628,0,0,0,1.766.519l5.383-1.735q.6.953,1.143,2.006l-4.2,3.8a1.633,1.633,0,0,0-.431,1.79,22.66,22.66,0,0,1,1.174,4.394A1.634,1.634,0,0,0,58.474,52.3l5.557,1.2c.021.384.036.771.036,1.16s-.013.776-.034,1.158l-5.557,1.2a1.634,1.634,0,0,0-1.267,1.334,22.77,22.77,0,0,1-1.174,4.4,1.632,1.632,0,0,0,.431,1.788l4.2,3.8c-.366.7-.748,1.372-1.143,2.007l-5.383-1.735a1.626,1.626,0,0,0-1.766.519,23.052,23.052,0,0,1-3.231,3.231,1.633,1.633,0,0,0-.519,1.764l1.735,5.383q-.953.6-2.006,1.143l-3.8-4.2a1.639,1.639,0,0,0-1.79-.431A22.661,22.661,0,0,1,38.361,77.2a1.634,1.634,0,0,0-1.334,1.267l-1.2,5.557a21.508,21.508,0,0,1-2.318,0l-1.2-5.557A1.634,1.634,0,0,0,30.975,77.2a22.77,22.77,0,0,1-4.4-1.174,1.629,1.629,0,0,0-1.788.431l-3.8,4.2c-.7-.366-1.372-.748-2.007-1.143l1.735-5.383a1.635,1.635,0,0,0-.519-1.766,22.965,22.965,0,0,1-3.231-3.231,1.631,1.631,0,0,0-1.766-.519L9.817,70.34q-.6-.953-1.143-2.007l4.2-3.8a1.633,1.633,0,0,0,.431-1.79,22.66,22.66,0,0,1-1.174-4.394,1.634,1.634,0,0,0-1.267-1.334l-5.56-1.2c-.02-.384-.034-.771-.034-1.16S5.28,53.881,5.3,53.5Z" transform="translate(0 12.676)" fill="#58f2e4"/>
    <path id="Path_9758" data-name="Path 9758" d="M68.924,25.25a1.632,1.632,0,0,0,1.132-1.37A19.211,19.211,0,0,0,70.2,21.6a19.542,19.542,0,0,0-.142-2.28,1.632,1.632,0,0,0-1.132-1.37L64.4,16.527q-.2-.556-.451-1.091l2.2-4.206a1.637,1.637,0,0,0-.167-1.769,19.775,19.775,0,0,0-3.232-3.232,1.637,1.637,0,0,0-1.769-.168l-4.209,2.2q-.534-.245-1.091-.449L54.251,3.277a1.632,1.632,0,0,0-1.37-1.132,18.069,18.069,0,0,0-4.562,0,1.632,1.632,0,0,0-1.37,1.132L45.525,7.806q-.556.2-1.091.451l-4.206-2.2a1.641,1.641,0,0,0-1.769.167,19.776,19.776,0,0,0-3.232,3.232,1.634,1.634,0,0,0-.168,1.769l2.194,4.206q-.245.534-.449,1.091l-4.529,1.423a1.632,1.632,0,0,0-1.132,1.37,18.365,18.365,0,0,0,0,4.56,1.632,1.632,0,0,0,1.132,1.37L36.8,26.673q.2.556.451,1.091l-2.2,4.206a1.637,1.637,0,0,0,.167,1.769,19.775,19.775,0,0,0,3.232,3.232,1.637,1.637,0,0,0,1.769.168l4.206-2.194q.534.245,1.091.449l1.423,4.529a1.632,1.632,0,0,0,1.37,1.132A19.3,19.3,0,0,0,50.6,41.2a19.54,19.54,0,0,0,2.28-.142,1.632,1.632,0,0,0,1.37-1.132L55.673,35.4q.556-.2,1.091-.451l4.206,2.2a1.634,1.634,0,0,0,1.769-.167,19.776,19.776,0,0,0,3.232-3.232,1.634,1.634,0,0,0,.168-1.769l-2.2-4.206q.247-.534.451-1.091Zm-6.3-1.444A1.638,1.638,0,0,0,61.545,24.9a11.5,11.5,0,0,1-.872,2.114,1.629,1.629,0,0,0-.01,1.529l2.073,3.972a16.67,16.67,0,0,1-1.225,1.225l-3.972-2.073a1.634,1.634,0,0,0-1.529.01,11.5,11.5,0,0,1-2.114.872,1.638,1.638,0,0,0-1.089,1.075l-1.346,4.286a13.761,13.761,0,0,1-1.722,0l-1.346-4.286A1.638,1.638,0,0,0,47.3,32.545a11.349,11.349,0,0,1-2.112-.872,1.632,1.632,0,0,0-1.53-.01l-3.972,2.073a16.669,16.669,0,0,1-1.225-1.225l2.073-3.972a1.634,1.634,0,0,0-.01-1.529,11.5,11.5,0,0,1-.872-2.114,1.638,1.638,0,0,0-1.075-1.089L34.294,22.46c-.02-.3-.028-.585-.028-.861s.008-.562.028-.861l4.286-1.346A1.638,1.638,0,0,0,39.655,18.3a11.35,11.35,0,0,1,.872-2.112,1.632,1.632,0,0,0,.01-1.53l-2.073-3.972a16.669,16.669,0,0,1,1.225-1.225l3.972,2.073a1.638,1.638,0,0,0,1.529-.01,11.5,11.5,0,0,1,2.114-.872A1.638,1.638,0,0,0,48.393,9.58l1.346-4.286a13.76,13.76,0,0,1,1.722,0L52.807,9.58A1.638,1.638,0,0,0,53.9,10.655a11.35,11.35,0,0,1,2.112.872,1.632,1.632,0,0,0,1.53.01l3.972-2.073a16.67,16.67,0,0,1,1.225,1.225l-2.073,3.972a1.634,1.634,0,0,0,.01,1.529,11.5,11.5,0,0,1,.872,2.114,1.638,1.638,0,0,0,1.075,1.089l4.286,1.346c.02.3.028.585.028.861s-.008.562-.028.861Z" transform="translate(18.367)" fill="#58f2e4"/>
    <path id="Path_9759" data-name="Path 9759" d="M73.461,40.007l-2.806-1a13.235,13.235,0,0,0-.55-1.334L71.38,34.99a1.626,1.626,0,0,0-.189-1.705,16.438,16.438,0,0,0-2.808-2.809,1.634,1.634,0,0,0-1.707-.189l-2.688,1.276a13.044,13.044,0,0,0-1.333-.549l-1-2.806a1.637,1.637,0,0,0-1.343-1.075,15.051,15.051,0,0,0-3.964,0,1.632,1.632,0,0,0-1.343,1.075l-1,2.806a13.238,13.238,0,0,0-1.334.55L49.99,30.287a1.634,1.634,0,0,0-1.705.189,16.438,16.438,0,0,0-2.809,2.808,1.636,1.636,0,0,0-.189,1.707l1.276,2.688a13.046,13.046,0,0,0-.549,1.333l-2.806,1a1.637,1.637,0,0,0-1.075,1.343A16,16,0,0,0,42,43.333a16.371,16.371,0,0,0,.131,1.981,1.632,1.632,0,0,0,1.075,1.343l2.806,1a13.237,13.237,0,0,0,.55,1.334l-1.276,2.687a1.626,1.626,0,0,0,.189,1.705,16.438,16.438,0,0,0,2.808,2.809,1.636,1.636,0,0,0,1.707.189L52.679,55.1a13.047,13.047,0,0,0,1.333.549l1,2.806a1.637,1.637,0,0,0,1.343,1.075,15.776,15.776,0,0,0,1.981.134,16.373,16.373,0,0,0,1.981-.131,1.632,1.632,0,0,0,1.343-1.075l1-2.806a13.239,13.239,0,0,0,1.334-.55l2.687,1.276a1.623,1.623,0,0,0,1.705-.189,16.438,16.438,0,0,0,2.809-2.808,1.636,1.636,0,0,0,.189-1.707L70.1,48.987a13.042,13.042,0,0,0,.549-1.333l2.806-1a1.637,1.637,0,0,0,1.075-1.343,15.774,15.774,0,0,0,.134-1.981,16.37,16.37,0,0,0-.131-1.981,1.634,1.634,0,0,0-1.075-1.344Zm-2.078,3.922-2.589.92a1.633,1.633,0,0,0-1.027,1.1,9.719,9.719,0,0,1-.906,2.2,1.637,1.637,0,0,0-.054,1.5l1.173,2.471q-.407.446-.851.851L64.658,51.8a1.638,1.638,0,0,0-1.5.054,9.724,9.724,0,0,1-2.2.907,1.639,1.639,0,0,0-1.1,1.027l-.92,2.589a11.167,11.167,0,0,1-1.192,0l-.92-2.589a1.633,1.633,0,0,0-1.1-1.027,9.719,9.719,0,0,1-2.2-.907,1.647,1.647,0,0,0-1.5-.054l-2.471,1.173q-.446-.407-.851-.851l1.173-2.471a1.632,1.632,0,0,0-.054-1.5,9.724,9.724,0,0,1-.907-2.2,1.639,1.639,0,0,0-1.027-1.1l-2.589-.92c-.013-.2-.02-.4-.02-.6s.007-.4.016-.6l2.589-.921a1.628,1.628,0,0,0,1.026-1.1,9.767,9.767,0,0,1,.908-2.2,1.637,1.637,0,0,0,.054-1.5l-1.173-2.471q.407-.446.851-.851l2.471,1.173a1.627,1.627,0,0,0,1.5-.054,9.724,9.724,0,0,1,2.2-.907,1.639,1.639,0,0,0,1.1-1.027l.92-2.589a11.167,11.167,0,0,1,1.192,0l.92,2.589a1.633,1.633,0,0,0,1.1,1.027,9.719,9.719,0,0,1,2.2.907,1.628,1.628,0,0,0,1.5.054l2.471-1.173q.446.407.851.851L66.8,37.009a1.632,1.632,0,0,0,.054,1.5,9.724,9.724,0,0,1,.906,2.2,1.639,1.639,0,0,0,1.027,1.1l2.589.92c.013.2.02.4.02.6s-.007.4-.016.6Z" transform="translate(25.333 15.833)" fill="#58f2e4"/>
    <path id="Path_9760" data-name="Path 9760" d="M28.967,66.933A17.967,17.967,0,1,0,11,48.967,17.988,17.988,0,0,0,28.967,66.933Zm0-32.667a14.7,14.7,0,1,1-14.7,14.7A14.718,14.718,0,0,1,28.967,34.267Z" transform="translate(5.7 18.366)" fill="#58f2e4"/>
    <path id="Path_9761" data-name="Path 9761" d="M2.022,33l2.509,2.092A39.12,39.12,0,0,1,34.653,20.981c.831,0,1.661.047,2.491.1l-2.012,2.012,2.31,2.31,4.9-4.9a1.632,1.632,0,0,0,0-2.31l-4.9-4.9-2.31,2.31,2.22,2.22c-.9-.057-1.8-.108-2.7-.108A42.381,42.381,0,0,0,2.022,33Z" transform="translate(0.014 7.152)" fill="#58f2e4"/>
    <path id="Path_9762" data-name="Path 9762" d="M46.167,9a8.167,8.167,0,1,0,8.167,8.167A8.176,8.176,0,0,0,46.167,9Zm0,13.067a4.9,4.9,0,1,1,4.9-4.9A4.906,4.906,0,0,1,46.167,22.067Z" transform="translate(22.8 4.433)" fill="#58f2e4"/>
    <path id="Path_9763" data-name="Path 9763" d="M54.533,33a6.533,6.533,0,1,0,6.533,6.533A6.54,6.54,0,0,0,54.533,33Zm0,9.8A3.267,3.267,0,1,1,57.8,39.533,3.27,3.27,0,0,1,54.533,42.8Z" transform="translate(29.133 19.633)" fill="#58f2e4"/>
    <path id="Path_9764" data-name="Path 9764" d="M65.741,5.666,57.575,4.033a1.63,1.63,0,0,0-1.922,1.281L54.019,13.48l3.2.642.88-4.4a24.508,24.508,0,0,1,2.419,10.608,24.238,24.238,0,0,1-5.374,15.313l2.55,2.043A27.789,27.789,0,0,0,60.92,8.033l4.181.836Z" transform="translate(32.945 1.266)" fill="#58f2e4"/>
  </g>
</svg>
