<svg xmlns="http://www.w3.org/2000/svg" width="26.517" height="13.7" viewBox="-0.883 -0.883 26.517 13.7"><g data-name="Path 9756"><path d="M25.354 5.812 19.496-.045a.586.586 0 1 0-.826.826l4.856 4.862H.336a.586.586 0 0 0 0 1.171h23.19L18.67 11.67a.586.586 0 1 0 .826.826l5.858-5.858a.586.586 0 0 0 0-.826Z" fill="#58f2e4" fill-rule="evenodd"/><path d="M25.354 5.812h0L19.496-.045a.586.586 0 1 0-.826.826l4.856 4.862H.336a.586.586 0 0 0 0 1.171h23.19L18.67 11.67a.586.586 0 1 0 .826.826l5.858-5.858a.586.586 0 0 0 0-.826Z" stroke-linejoin="round" stroke-linecap="round" stroke-width=".5" stroke="#58f2e4" fill="transparent"/></g></svg>