<svg id="cheak" xmlns="http://www.w3.org/2000/svg" width="24.35" height="24.35" viewBox="0 0 24.35 24.35">
  <path id="Path_9767" data-name="Path 9767" d="M12.175,24.35A12.175,12.175,0,1,1,24.35,12.175,12.189,12.189,0,0,1,12.175,24.35Zm0-22.828A10.653,10.653,0,1,0,22.828,12.175,10.665,10.665,0,0,0,12.175,1.522Zm0,0" fill="#1b7bcb"/>
  <path id="Path_9768" data-name="Path 9768" d="M150.73,178.77a.755.755,0,0,1-.538-.223l-3.3-3.3a.761.761,0,1,1,1.077-1.077l2.76,2.76,6.057-6.057a.761.761,0,0,1,1.076,1.076l-6.595,6.595a.762.762,0,0,1-.54.223Zm0,0" transform="translate(-139.696 -162.537)" fill="#1b7bcb"/>
</svg>
