<svg xmlns="http://www.w3.org/2000/svg" width="101.157" height="99.025" viewBox="0 0 101.157 99.025">
  <g id="Group_49981" data-name="Group 49981" transform="translate(-1590.263 -4416.127)">
    <g id="comment_3_" data-name="comment (3)" transform="translate(1590.263 4416.126)">
      <g id="Group_47482" data-name="Group 47482" transform="translate(0 0)">
        <path id="Path_9801" data-name="Path 9801" d="M262.381,155.395h-41.49A8.9,8.9,0,0,0,212,164.286v35.563a8.9,8.9,0,0,0,8.891,8.891h22.482l16.045,16.045V208.739h2.964a8.9,8.9,0,0,0,8.891-8.891V164.286a8.9,8.9,0,0,0-8.891-8.891Zm-8.891,35.563H229.782v-5.927H253.49Zm0-11.854H229.782v-5.927H253.49Z" transform="translate(-170.115 -125.759)" fill="#2aa5f1"/>
        <path id="Path_9802" data-name="Path 9802" d="M35.958,43.922A14.835,14.835,0,0,1,50.776,29.1h8.891V14.286A8.9,8.9,0,0,0,50.776,5.4H8.891A8.9,8.9,0,0,0,0,14.286V49.849A8.9,8.9,0,0,0,8.891,58.74H12.25V74.785L28.295,58.74h7.664Z" transform="translate(0 -5.395)" fill="#58f2e4"/>
      </g>
    </g>
    <path id="Path_9803" data-name="Path 9803" d="M0,0H39.794V30.481H0Z" transform="translate(1640.841 4456.66)" fill="#2aa5f1"/>
    <g id="Comma" transform="translate(1649.386 4461.133)">
      <g id="Group_49980" data-name="Group 49980" transform="translate(0 0)">
        <path id="Path_47679" data-name="Path 47679" d="M557.451,78.732h7.607a1.252,1.252,0,0,0,1.251-1.251V69.874a1.252,1.252,0,0,0-1.251-1.251h-3.641a8.279,8.279,0,0,1,1.386-4.784,7.538,7.538,0,0,1,3.135-2.347,1.249,1.249,0,0,0,.621-1.679l-.9-1.9a1.251,1.251,0,0,0-1.629-.611,13.91,13.91,0,0,0-4.2,2.722,10.563,10.563,0,0,0-2.86,4.551A24.657,24.657,0,0,0,556.2,71.5v5.98A1.252,1.252,0,0,0,557.451,78.732Z" transform="translate(-556.2 -57.197)" fill="#fff"/>
        <path id="Path_47680" data-name="Path 47680" d="M7.826,57.3A14.144,14.144,0,0,0,3.65,60.019,10.507,10.507,0,0,0,.772,64.553,24.627,24.627,0,0,0,0,71.5v5.98A1.252,1.252,0,0,0,1.25,78.728H8.857a1.252,1.252,0,0,0,1.251-1.251V69.87a1.252,1.252,0,0,0-1.251-1.251H5.216A8.279,8.279,0,0,1,6.6,63.835a7.537,7.537,0,0,1,3.135-2.347,1.249,1.249,0,0,0,.621-1.679l-.9-1.9A1.255,1.255,0,0,0,7.826,57.3Z" transform="translate(13.918 -57.193)" fill="#fff"/>
      </g>
    </g>
  </g>
</svg>
