<svg id="clock_1_" data-name="clock (1)" xmlns="http://www.w3.org/2000/svg" width="29" height="29" viewBox="0 0 29 29">
  <g id="Group_49994" data-name="Group 49994">
    <g id="Group_49993" data-name="Group 49993">
      <path id="Path_47681" data-name="Path 47681" d="M14.5,29A14.5,14.5,0,1,0,0,14.5,14.518,14.518,0,0,0,14.5,29Zm0-27.067A12.567,12.567,0,1,1,1.933,14.5,12.579,12.579,0,0,1,14.5,1.933Z" fill="#58f2e4"/>
      <path id="Path_47682" data-name="Path 47682" d="M172.863,85.179a.952.952,0,0,0,.6.213.967.967,0,0,0,.6-1.721L169.6,80.094V72.825a.967.967,0,0,0-1.933,0v7.733a.97.97,0,0,0,.362.754Z" transform="translate(-154.134 -66.058)" fill="#58f2e4"/>
    </g>
  </g>
</svg>
