<svg id="person" xmlns="http://www.w3.org/2000/svg" width="29" height="29" viewBox="0 0 29 29">
  <g id="Group_49996" data-name="Group 49996">
    <g id="Group_49995" data-name="Group 49995">
      <path id="Path_47683" data-name="Path 47683" d="M26.156,23.125a14.513,14.513,0,1,0-1.022,1.232A14.6,14.6,0,0,0,26.156,23.125Zm-.8-1.376a13.05,13.05,0,1,0-21.7,0A13.07,13.07,0,0,1,11.2,16.371a5.8,5.8,0,1,1,6.6,0A13.071,13.071,0,0,1,25.352,21.75Zm-.934,1.231a11.6,11.6,0,0,0-19.837,0,13.05,13.05,0,0,0,19.837,0ZM14.5,15.95a4.35,4.35,0,1,0-4.35-4.35A4.35,4.35,0,0,0,14.5,15.95Z" fill="#58f2e4" fill-rule="evenodd"/>
    </g>
  </g>
</svg>
