<svg xmlns="http://www.w3.org/2000/svg" width="64.768" height="64.779" viewBox="0 0 64.768 64.779">
  <g id="programmer" transform="translate(-0.042)">
    <g id="Group_47449" data-name="Group 47449" transform="translate(43.449 33.155)">
      <g id="Group_47448" data-name="Group 47448">
        <path id="Path_9769" data-name="Path 9769" d="M346.124,262.048a3.007,3.007,0,1,0,3.007,3.007A3.01,3.01,0,0,0,346.124,262.048Zm0,4.116a1.109,1.109,0,1,1,1.109-1.109A1.111,1.111,0,0,1,346.124,266.164Z" transform="translate(-343.117 -262.048)" fill="#58f2e4"/>
      </g>
    </g>
    <g id="Group_47451" data-name="Group 47451" transform="translate(32.11 51.937)">
      <g id="Group_47450" data-name="Group 47450">
        <path id="Path_9770" data-name="Path 9770" d="M257.37,410.5h-2.92a.949.949,0,1,0,0,1.9h2.92a.949.949,0,1,0,0-1.9Z" transform="translate(-253.501 -410.503)" fill="#58f2e4"/>
      </g>
    </g>
    <g id="Group_47453" data-name="Group 47453" transform="translate(38.241 51.937)">
      <g id="Group_47452" data-name="Group 47452">
        <path id="Path_9771" data-name="Path 9771" d="M303.778,411.09a1.268,1.268,0,0,0-.2-.309.958.958,0,0,0-.856-.259.944.944,0,0,0-.177.054.973.973,0,0,0-.164.087.924.924,0,0,0-.262.262.976.976,0,0,0-.142.342.945.945,0,0,0,.568,1.061.946.946,0,0,0,1.238-1.239Z" transform="translate(-301.954 -410.504)" fill="#58f2e4"/>
      </g>
    </g>
    <g id="Group_47455" data-name="Group 47455" transform="translate(42.155 13.255)">
      <g id="Group_47454" data-name="Group 47454">
        <path id="Path_9772" data-name="Path 9772" d="M335.184,108.059l1.671-1.671a.949.949,0,0,0-1.342-1.342l-2.342,2.342a.949.949,0,0,0,0,1.342l2.342,2.342a.949.949,0,0,0,1.342-1.342Z" transform="translate(-332.893 -104.768)" fill="#58f2e4"/>
      </g>
    </g>
    <g id="Group_47457" data-name="Group 47457" transform="translate(52.32 13.256)">
      <g id="Group_47456" data-name="Group 47456">
        <path id="Path_9773" data-name="Path 9773" d="M417.2,107.39l-2.342-2.342a.949.949,0,0,0-1.342,1.342l1.671,1.671-1.671,1.671a.95.95,0,0,0,.671,1.62c.679,0,.734-.465,3.012-2.619A.949.949,0,0,0,417.2,107.39Z" transform="translate(-413.233 -104.77)" fill="#58f2e4"/>
      </g>
    </g>
    <g id="Group_47459" data-name="Group 47459" transform="translate(46.991 12.193)">
      <g id="Group_47458" data-name="Group 47458">
        <path id="Path_9774" data-name="Path 9774" d="M375.019,96.43A.949.949,0,0,0,373.8,97l-2.63,7.226a.949.949,0,1,0,1.783.649l2.63-7.226A.949.949,0,0,0,375.019,96.43Z" transform="translate(-371.116 -96.373)" fill="#58f2e4"/>
      </g>
    </g>
    <g id="Group_47462" data-name="Group 47462" transform="translate(0.042 0)">
      <g id="Group_47461" data-name="Group 47461" transform="translate(0)">
        <g id="Group_47460" data-name="Group 47460">
          <path id="Path_9775" data-name="Path 9775" d="M136.693,294.043Z" transform="translate(-119.404 -256.84)" fill="#58f2e4"/>
          <path id="Path_9776" data-name="Path 9776" d="M62.3,28.065c-32.981.107-31.8-.265-32.844.3a2.508,2.508,0,0,0-1.312,2.2v1.342l-2.6-1.579v-.668a10.451,10.451,0,0,0,5.679-9.4v-.014A4.206,4.206,0,0,0,32.6,19.7a.941.941,0,0,0,.1-.058,3.341,3.341,0,0,0,1.546-2.677,3.193,3.193,0,0,0-1.023-2.422c.753-3.541.5-6.35-.758-8.352a6.237,6.237,0,0,0-3.972-2.779.533.533,0,0,1-.3-.181C25.517-.1,19.581-.982,14.383,1.182a.949.949,0,1,0,.729,1.752c4.374-1.821,9.469-1.17,11.6,1.484a2.437,2.437,0,0,0,1.378.847A4.352,4.352,0,0,1,30.859,7.2c.924,1.471,1.132,3.611.625,6.369a4.027,4.027,0,0,0-1.445-.137,3.2,3.2,0,0,1-2.868-1.168,1.808,1.808,0,0,0-2.486-.357c-2.11,1.529-8.11,3.916-13.295,1.638a.938.938,0,0,0-.506-.138.619.619,0,0,0-.08,0,4.473,4.473,0,0,0-1.216.184c-.715-3.1-.221-6.243,2.082-8.449h0a.949.949,0,1,0-1.314-1.37C7.386,6.622,6.786,10.719,7.883,14.587c-1.961,1.961-.838,5.08,2.074,5.677a15.225,15.225,0,0,0,.253,2.472,10.532,10.532,0,0,0,2.282,4.474,10.855,10.855,0,0,0,3.062,2.483v.634l-4.337,2.558L7.539,33.9a5.423,5.423,0,0,0-4.088,4.246c0,.012,0,.023-.006.035L.108,58.929a5.049,5.049,0,0,0,4.984,5.85H36.129A4.939,4.939,0,0,0,39.3,63.631a2.664,2.664,0,0,0,2.188,1.147h9.988a2.666,2.666,0,0,0,0-5.332H51.1V58h3.806a.949.949,0,0,0,0-1.9H51.1V43.639a.949.949,0,0,0-.468-1.774h-8.2a.949.949,0,0,0-.356,1.828V56.1c-12.614,0-11.625.055-11.859-.179-.259-.259-.179,1.269-.179-25.348a.61.61,0,0,1,.61-.61c33.717.026,31.683-.065,31.939.073a.611.611,0,0,1,.32.537V55.49a.61.61,0,0,1-.32.537c-.236.128-.162.049-3.256.073a.949.949,0,0,0,0,1.9c2.823-.078,3.7.3,4.739-.734a2.491,2.491,0,0,0,.735-1.774V30.573A2.508,2.508,0,0,0,62.3,28.065ZM31.229,15.483a1.433,1.433,0,0,1,0,2.8ZM9.908,18.273a1.43,1.43,0,0,1,.014-2.79C9.909,16.224,9.9,17.23,9.908,18.273ZM43.979,43.766h5.226V59.447H43.979ZM42.082,58v1.45a6.165,6.165,0,0,0-1.019.037c-.028-.4-.067-.513-.218-1.486h1.237Zm-.6,3.347h9.988a.768.768,0,0,1,0,1.536H41.485a.768.768,0,1,1,0-1.536ZM27.905,33.989l-4.093,3.26c1.784-4.537,1.761-4.361,1.738-4.692ZM13.93,25.973c-2.607-3.037-2.04-5.83-2.11-10.237A17.129,17.129,0,0,0,25.727,13.5a4.956,4.956,0,0,0,3.605,1.838c0,.462-.006,2.191,0,4.939A8.769,8.769,0,0,1,13.93,25.973ZM17.9,33.388,17.45,32.23V30.486a10.613,10.613,0,0,0,6.2-.036v2.023l-.358.911A4.83,4.83,0,0,1,17.9,33.388Zm4.411,2.5-1.561,3.967a.17.17,0,0,1-.174.118c-.128,0-.144-.046-.176-.125l-1.535-3.964A6.693,6.693,0,0,0,22.31,35.884Zm-6.75-3.358c.033.265.133.353,1.785,4.687l-.112-.091.1.08L13.248,33.89Zm1.665,4.59ZM7.551,33.9q-.04.014-.078.031A.677.677,0,0,1,7.551,33.9Zm8.435,28.979V59.548a4.354,4.354,0,0,1,3.522,3.334Zm9.165,0H21.613a4.354,4.354,0,0,1,3.537-3.336Zm.294-5.276a6.242,6.242,0,0,0-4.884,2.923,6.243,6.243,0,0,0-4.868-2.922A2.748,2.748,0,0,0,15,56.734a7.059,7.059,0,0,0,2.153-4.061h6.812a7.052,7.052,0,0,0,2.161,4.067A2.746,2.746,0,0,0,25.444,57.606Zm.3-5.929a.949.949,0,0,0-.948-.9H16.327a.951.951,0,0,0-.947.9,6.741,6.741,0,0,1-.649,2.341c-1.4,2.785-3.947,1.925-4.946,2.085L11.6,43.841a.949.949,0,0,0-1.877-.278L7.866,56.1H6.888a.949.949,0,1,0,0,1.9h6.365a.835.835,0,0,1,.834.832v4.052h-9a3.151,3.151,0,0,1-3.11-3.651L5.316,38.506c.589-2.894,3.3-2.769,6.057-3.694l3.233,2.623v6.094a.949.949,0,1,0,1.9,0V38.974L18.756,40.8a2.085,2.085,0,0,0,3.635,0l2.256-1.8v4.519a.949.949,0,1,0,1.9,0V37.5l1.6-1.276c.009,20.562-.019,19.245.021,19.576a3.592,3.592,0,0,1-1.778-1.785A6.741,6.741,0,0,1,25.741,51.677ZM38.923,58l.217,1.35a3.05,3.05,0,0,1-3.011,3.534H27.048V58.829A.835.835,0,0,1,27.882,58Z" transform="translate(-0.042 0)" fill="#58f2e4"/>
        </g>
      </g>
    </g>
    <g id="Group_47464" data-name="Group 47464" transform="translate(36.989 9.165)">
      <g id="Group_47463" data-name="Group 47463">
        <path id="Path_9777" data-name="Path 9777" d="M316.311,81.419a.949.949,0,0,0-.949.949v5.157c-.918-.706-1.522-1.8-3-1.8H294.526a.577.577,0,0,1-.569-.569V74.9a.577.577,0,0,1,.569-.569h20.267a.577.577,0,0,1,.569.569V77.94a.949.949,0,0,0,1.9,0V74.9a2.47,2.47,0,0,0-2.467-2.467H294.526a2.47,2.47,0,0,0-2.467,2.467V85.15a2.47,2.47,0,0,0,2.467,2.467h17.839c.471,0,.566.332,1.962,1.531a1.753,1.753,0,0,0,2.933-1.3V82.368A.949.949,0,0,0,316.311,81.419Z" transform="translate(-292.059 -72.437)" fill="#58f2e4"/>
      </g>
    </g>
  </g>
</svg>
