<svg xmlns="http://www.w3.org/2000/svg" width="78.071" height="79.306" viewBox="0 0 78.071 79.306">
  <g id="Data_innovations" data-name="Data innovations" transform="translate(-4.449 0)">
    <g id="Group_50087" data-name="Group 50087" transform="translate(4.449 0)">
      <path id="Path_47711" data-name="Path 47711" d="M140.478,36.762a1.184,1.184,0,0,0-1.168-1.112h-13.49l2.189-4.985a1.185,1.185,0,0,0,.019-.9L126.906,26.9a12.06,12.06,0,0,0,1.808-.837l2.81,1.735a1.178,1.178,0,0,0,1.484-.208l2.717-2.98a1.169,1.169,0,0,0,.058-1.507l-2.018-2.587a11.859,11.859,0,0,0,.612-1.7l3.222-.743a1.171,1.171,0,0,0,.907-1.2l-.2-4.01a1.171,1.171,0,0,0-1.024-1.1L134,11.343a11.859,11.859,0,0,0-.781-1.63l1.746-2.777a1.169,1.169,0,0,0-.21-1.494l-3-2.691a1.174,1.174,0,0,0-1.5-.057L127.633,4.7a12.064,12.064,0,0,0-1.726-.611L125.162.905a1.17,1.17,0,0,0-1.2-.9l-4.045.2a1.172,1.172,0,0,0-1.1,1.019l-.42,3.246a12.05,12.05,0,0,0-1.656.781l-2.81-1.735a1.174,1.174,0,0,0-1.484.208l-2.717,2.98a1.169,1.169,0,0,0-.058,1.507l2.017,2.587a11.885,11.885,0,0,0-.5,1.315l-5.492-2.4a1.173,1.173,0,0,0-1.545.6L99.492,20.929V2.742a1.173,1.173,0,0,0-2.345,0V7.87a25.032,25.032,0,0,0-19.9,11.413,1.172,1.172,0,0,0,1.966,1.276A22.69,22.69,0,0,1,97.147,10.214V59.781H89.917a1.8,1.8,0,0,1-1.789-1.8V53.97a1.171,1.171,0,0,0-.617-1.031A22.724,22.724,0,0,1,76.57,26.171a1.173,1.173,0,0,0-2.238-.7A25.065,25.065,0,0,0,85.784,54.658v3.326a4.145,4.145,0,0,0,2.961,3.968V67.5a6.507,6.507,0,0,0,6.5,6.5h1.9v4.142a1.173,1.173,0,0,0,2.345,0V50.114l11.947,5.23-.269,1.529a9.914,9.914,0,0,0-1.153.474l-2.105-1.465a1.173,1.173,0,0,0-1.5.133L104.1,58.33a1.17,1.17,0,0,0-.132,1.5l1.469,2.1a9.887,9.887,0,0,0-.473,1.152l-2.507.442a1.171,1.171,0,0,0-.969,1.158l.013,3.284a1.171,1.171,0,0,0,.962,1.147l2.522.46a10.006,10.006,0,0,0,.487,1.167l-1.448,2.086a1.169,1.169,0,0,0,.135,1.5l2.335,2.329a1.174,1.174,0,0,0,1.5.133l2.088-1.448a10.048,10.048,0,0,0,1.169.485l.463,2.518a1.172,1.172,0,0,0,1.149.959l3.288.01h0a1.172,1.172,0,0,0,1.155-.968l.44-2.5a9.9,9.9,0,0,0,1.153-.474L121,76.825a1.173,1.173,0,0,0,1.5-.133l2.316-2.314a1.17,1.17,0,0,0,.132-1.5l-1.469-2.1a9.885,9.885,0,0,0,.473-1.152l2.507-.442a1.172,1.172,0,0,0,.969-1.158l-.013-3.284a1.172,1.172,0,0,0-.962-1.147l-2.371-.432c3.356-.015,6.764-.015,10.077-.015a1.2,1.2,0,0,0,1.075-.348l4.928-5.232a1.171,1.171,0,0,0,.318-.8V36.82C140.482,36.8,140.478,36.781,140.478,36.762Zm-3.88,1.229-2.671,2.837H117.1l2.672-2.837ZM123.366,17.821a1.193,1.193,0,0,0-.622-.647l-4.45-1.948a4.449,4.449,0,1,1,5.855,4.6ZM122.205,21.3l1.266,3.246,1.34,3.434-4.653-2.052ZM113.984,9.936l-1.859-2.384,1.4-1.532,2.594,1.6a1.174,1.174,0,0,0,1.259-.016,9.711,9.711,0,0,1,2.436-1.148,1.171,1.171,0,0,0,.814-.968l.387-2.995L123.1,2.39l.688,2.941a1.172,1.172,0,0,0,.908.881,9.711,9.711,0,0,1,2.539.9A1.174,1.174,0,0,0,128.49,7l2.419-1.855,1.544,1.383-1.609,2.559a1.17,1.17,0,0,0,.016,1.27,9.534,9.534,0,0,1,1.155,2.41,1.172,1.172,0,0,0,.971.81l3.025.382.1,2.052-2.971.685a1.171,1.171,0,0,0-.884.9,9.517,9.517,0,0,1-.905,2.513,1.17,1.17,0,0,0,.112,1.266l1.859,2.384-1.4,1.532-2.594-1.6a1.174,1.174,0,0,0-1.259.016,9.715,9.715,0,0,1-2.021,1.008L125,22.012a6.755,6.755,0,1,0-8.924-7.757l-2.726-1.194a9.556,9.556,0,0,1,.745-1.86A1.169,1.169,0,0,0,113.984,9.936ZM95.249,71.653A4.161,4.161,0,0,1,91.09,67.5V62.123h6.057v9.53Zm4.242-44.892,6.338-14.435,14.9,6.522-3.186,7.2a1.17,1.17,0,0,0,.6,1.544l7.253,3.2-2.132,4.856h-3.99a1.173,1.173,0,0,0-.854.369l-4.928,5.232a2.148,2.148,0,0,0-.339,1.31V53.4h-.308L99.492,47.557Zm25.589,40.291-2.248.4a1.172,1.172,0,0,0-.932.864,7.538,7.538,0,0,1-.8,1.958,1.169,1.169,0,0,0,.05,1.262l1.318,1.885-.928.927-1.889-1.314a1.174,1.174,0,0,0-1.264-.049,7.565,7.565,0,0,1-1.959.8,1.171,1.171,0,0,0-.865.932l-.395,2.245-1.327,0-.416-2.264a1.172,1.172,0,0,0-.857-.921,7.706,7.706,0,0,1-1.971-.819,1.174,1.174,0,0,0-1.265.046l-1.875,1.3-.949-.946,1.3-1.873a1.169,1.169,0,0,0,.045-1.263,7.689,7.689,0,0,1-.822-1.968,1.172,1.172,0,0,0-.924-.855l-2.267-.413-.005-1.325,2.248-.4a1.172,1.172,0,0,0,.932-.864,7.54,7.54,0,0,1,.8-1.958,1.17,1.17,0,0,0-.05-1.262l-1.318-1.885.928-.927,1.889,1.314a1.173,1.173,0,0,0,1.264.049,7.572,7.572,0,0,1,1.96-.8,1.171,1.171,0,0,0,.865-.932l.395-2.245,1.327,0,.416,2.264a1.172,1.172,0,0,0,.857.921,7.7,7.7,0,0,1,1.971.819,1.173,1.173,0,0,0,1.265-.046l1.875-1.3.949.946-1.3,1.873a1.169,1.169,0,0,0-.045,1.263,7.689,7.689,0,0,1,.822,1.968,1.172,1.172,0,0,0,.924.855l2.268.413Zm10.476-8.008c0-1.153,0-4,0-4a1.173,1.173,0,0,0-2.345,0v5.766c-2.96,0-5.982,0-8.968.015l.652-.94a1.17,1.17,0,0,0-.135-1.5l-2.335-2.329a1.174,1.174,0,0,0-1.5-.133l-2.088,1.448a10.046,10.046,0,0,0-1.169-.485l-.463-2.518a1.394,1.394,0,0,0-1.7-.961c-.019-1.3.122-8.1,0-10.186h17.7V48.93a1.173,1.173,0,0,0,2.345,0s0-4.4,0-6.417l2.579-2.739V56.3Z" transform="translate(-62.411 0)" fill="#58f2e4"/>
      <path id="Path_47712" data-name="Path 47712" d="M308.482,390.994h-.017a5.3,5.3,0,0,0-5.306,5.329,5.374,5.374,0,0,0,5.35,5.346h.017a5.3,5.3,0,0,0,5.307-5.329,5.374,5.374,0,0,0-5.351-5.346Zm2.134,7.456a2.911,2.911,0,0,1-2.1.864,3.02,3.02,0,0,1-3-3,2.947,2.947,0,0,1,2.963-2.966,3.02,3.02,0,0,1,3,3A2.934,2.934,0,0,1,310.616,398.451Z" transform="translate(-256.461 -330.055)" fill="#58f2e4"/>
      <path id="Path_47713" data-name="Path 47713" d="M73.793,52.1a1.206,1.206,0,0,0,.832-2.009l-4.013-4.014a1.177,1.177,0,0,0-1.664,1.664l4.013,4.014A1.173,1.173,0,0,0,73.793,52.1Z" transform="translate(-58.533 -38.552)" fill="#58f2e4"/>
      <path id="Path_47714" data-name="Path 47714" d="M11.266,204.487H5.591a1.177,1.177,0,0,0,0,2.354h5.675A1.177,1.177,0,0,0,11.266,204.487Z" transform="translate(-4.449 -172.571)" fill="#58f2e4"/>
      <path id="Path_47715" data-name="Path 47715" d="M75.249,337.026l-4.013,4.014A1.177,1.177,0,0,0,72.9,342.7l4.013-4.014A1.177,1.177,0,0,0,75.249,337.026Z" transform="translate(-60.462 -284.146)" fill="#58f2e4"/>
    </g>
  </g>
</svg>
