<svg xmlns="http://www.w3.org/2000/svg" width="77.834" height="79.634" viewBox="0 0 77.834 79.634">
  <g id="Business_solutions" data-name="Business solutions" transform="translate(-5.788)">
    <path id="Path_47716" data-name="Path 47716" d="M30.732,42.668a4.774,4.774,0,1,0,9.434-1.03L47.024,38.2a4.771,4.771,0,0,0,7.708-5.565l8.594-8.608a4.763,4.763,0,0,0,6.057-.985L76.24,26.48a4.773,4.773,0,1,0,8.2-2.176l10-15.032A4.783,4.783,0,1,0,92.5,7.979l-10,15.032A4.763,4.763,0,0,0,77.288,24.4L70.43,20.961a4.773,4.773,0,1,0-8.755,1.421L53.081,30.99a4.777,4.777,0,0,0-7.1,5.128l-6.858,3.435a4.777,4.777,0,0,0-8.387,3.114Zm65.3-40.334a2.441,2.441,0,1,1-2.441,2.441A2.443,2.443,0,0,1,96.033,2.333ZM80.9,25.069a2.441,2.441,0,1,1-2.441,2.441A2.443,2.443,0,0,1,80.9,25.069ZM65.769,17.491a2.441,2.441,0,1,1-2.441,2.441A2.443,2.443,0,0,1,65.769,17.491ZM50.637,32.648A2.441,2.441,0,1,1,48.2,35.089,2.443,2.443,0,0,1,50.637,32.648ZM35.506,45.108a2.441,2.441,0,1,1,2.441-2.441A2.443,2.443,0,0,1,35.506,45.108Z" transform="translate(-21.064)" fill="#58f2e4"/>
    <path id="Path_47717" data-name="Path 47717" d="M82.455,168.8H81.012V143.165a1.167,1.167,0,1,0-2.333,0V168.8h-7.42V110.682h7.42v27.039a1.167,1.167,0,1,0,2.333,0v-27.23a2.145,2.145,0,0,0-2.142-2.142h-7.8a2.145,2.145,0,0,0-2.142,2.142V168.8H65.88V133.334a2.144,2.144,0,0,0-2.142-2.142H62.559a1.167,1.167,0,1,0,0,2.333h.988V168.8h-7.42V133.525h.988a1.167,1.167,0,1,0,0-2.333H55.936a2.144,2.144,0,0,0-2.142,2.142V168.8H50.748V125.689a2.144,2.144,0,0,0-2.142-2.142H40.8a2.144,2.144,0,0,0-2.142,2.142V168.8H35.617V140.913a2.145,2.145,0,0,0-2.142-2.142h-7.8a2.145,2.145,0,0,0-2.142,2.142V168.8H20.485V148.491a2.144,2.144,0,0,0-2.142-2.142h-7.8A2.144,2.144,0,0,0,8.4,148.491V168.8H6.954a1.167,1.167,0,0,0,0,2.333h75.5a1.167,1.167,0,1,0,0-2.333Zm-71.724,0V148.682h7.42V168.8Zm15.132,0V141.1h7.42V168.8Zm15.132,0V125.88h7.42V168.8Z" transform="translate(0 -91.497)" fill="#58f2e4"/>
  </g>
</svg>
