<svg xmlns="http://www.w3.org/2000/svg" width="258.3" height="139.064" viewBox="0 0 258.3 139.064">
  <g id="svgexport-1" transform="translate(-1 -0.5)">
    <path id="Path_47725" data-name="Path 47725" d="M73.424,12.446H74.3V7.2h1.924l.175-.7H71.5v.7h2.1ZM77.8,7.9l2.1,3.148h.525l2.1-3.148v4.547l.874-.175V6.5h-.7L80.419,10,78.145,6.5h-.874v5.771h.7Z" transform="translate(52.791 4.493)" fill="#dcdcdc"/>
    <path id="Path_47726" data-name="Path 47726" d="M137.757,74.475a3.751,3.751,0,0,1-2.8,1.749h-.874a6.129,6.129,0,0,1-5.072-2.623l-.175-.175a9.949,9.949,0,0,0-5.6-3.5,9.949,9.949,0,0,0,5.6-3.5l.175-.35a6.217,6.217,0,0,1,5.072-2.448c4.547,0,4.9,4.9,4.9,6.3a7.035,7.035,0,0,1-1.224,4.547Zm-4.9,8.919c4.372,1.4,3.148,6.121,2.8,7.52a7.406,7.406,0,0,1-2.623,4.022,4.154,4.154,0,0,1-4.022.525,6.161,6.161,0,0,1-4.022-4.022v-.35a9.135,9.135,0,0,0-4.2-5.072,11.426,11.426,0,0,0,2.448,0,8.2,8.2,0,0,0,3.847-1.574l.35-.175a6.546,6.546,0,0,1,5.421-.874ZM122.718,96.335c-.874,1.749-1.749,2.973-3.148,3.5h-.175a2.218,2.218,0,0,1-1.049.175,8.694,8.694,0,0,1-4.722-.7c-3.673-1.924-5.246-6.121-3.5-9.444s6.121-4.547,9.793-2.8a6.81,6.81,0,0,1,3.847,4.372l.175.35A9.366,9.366,0,0,1,122.718,96.335Zm2.973,5.6c3.673,2.623,1.224,6.82.35,8.045a7.354,7.354,0,0,1-3.673,2.973c-.175,0-.525.175-.7.175a4.587,4.587,0,0,1-3.323-.874,6.642,6.642,0,0,1-2.623-5.072v-.35a9.056,9.056,0,0,0-2.448-6.121,9.2,9.2,0,0,0,6.471.35l.35-.175a7.776,7.776,0,0,1,5.6,1.049Zm-11.542,4.9v.35c0,1.4-.874,2.623-2.273,4.022-1.224,1.224-2.273,2.1-3.5,2.273h-.7a8.343,8.343,0,0,1-5.421-2.273c-2.973-2.973-3.148-7.345-.35-10.143,2.623-2.623,7.17-2.448,10.143.35a7.523,7.523,0,0,1,2.1,5.421ZM113.1,117.321c2.623,3.673-1.049,6.82-2.273,7.695a8.376,8.376,0,0,1-3.673,1.574h-.874a4.82,4.82,0,0,1-3.673-1.924,6.177,6.177,0,0,1-.874-5.771l.175-.35a9.2,9.2,0,0,0-.35-6.471,9.056,9.056,0,0,0,6.121,2.448h.35a7.761,7.761,0,0,1,5.072,2.8Zm-12.417,1.049-.175.35c-.525,1.4-1.749,2.273-3.323,3.148a11.179,11.179,0,0,1-2.8,1.049,3.023,3.023,0,0,1-1.749-.175h-.175a7.315,7.315,0,0,1-4.372-3.847,6.9,6.9,0,1,1,12.242-6.3,9.27,9.27,0,0,1,.35,5.771Zm-4.372,9.793c1.4,4.372-3.148,6.3-4.547,6.646a5.106,5.106,0,0,1-1.574.35,6.423,6.423,0,0,1-3.148-.175,4.024,4.024,0,0,1-2.8-2.973,6.25,6.25,0,0,1,.874-5.771l.175-.175a8.8,8.8,0,0,0,1.574-6.3,9.263,9.263,0,0,0,5.072,4.2l.35.175a5.822,5.822,0,0,1,4.022,4.022Zm-16.439-.7c-1.924.35-3.323.35-4.722-.525l-.175-.175A7.967,7.967,0,0,1,72,121.693c-.7-4.022,1.924-7.87,5.6-8.394a7.168,7.168,0,0,1,7.87,6.3,8.32,8.32,0,0,1-1.224,5.771l-.175.175c-.874,1.049-2.273,1.574-4.2,1.924Zm-7.52,10.493a6.024,6.024,0,0,1-1.574.175,7.035,7.035,0,0,1-4.547-1.224,4.185,4.185,0,0,1-1.749-3.673,6.129,6.129,0,0,1,2.623-5.072l.175-.175a10.118,10.118,0,0,0,3.5-5.421,9.949,9.949,0,0,0,3.5,5.6l.35.175a6.217,6.217,0,0,1,2.448,5.072C77.073,136.558,74.275,137.607,72.352,137.957ZM61.509,127.464c-1.924-.35-3.323-.7-4.2-1.924a.171.171,0,0,0-.175-.175,7.343,7.343,0,0,1-1.224-5.771c.7-4.022,4.2-6.82,7.87-6.3s6.3,4.372,5.6,8.394a7.967,7.967,0,0,1-2.973,5.072l-.175.175a6.212,6.212,0,0,1-1.574.7,20.084,20.084,0,0,1-3.148-.175Zm-4.372,4.547a4.2,4.2,0,0,1-3.673,3.148,13.159,13.159,0,0,1-4.022-.35,7.406,7.406,0,0,1-4.022-2.623,4.154,4.154,0,0,1-.525-4.022,6.161,6.161,0,0,1,4.022-4.022l.35-.175a9.135,9.135,0,0,0,5.072-4.2,9.731,9.731,0,0,0,1.574,6.3l.175.35A5.548,5.548,0,0,1,57.137,132.011ZM44.2,121.868c-1.749-.874-2.973-1.749-3.5-3.148v-.175a8.208,8.208,0,0,1,.525-5.771c1.924-3.673,6.121-5.246,9.444-3.5s4.547,6.121,2.8,9.793a7.315,7.315,0,0,1-4.372,3.847,3.967,3.967,0,0,1-.7.175A10.312,10.312,0,0,1,44.2,121.868Zm-4.722-2.973.175.35a6.947,6.947,0,0,1-.874,5.6c-2.623,3.673-6.82,1.224-8.045.35a7.354,7.354,0,0,1-2.973-3.673,4.209,4.209,0,0,1,.7-4.022,6.642,6.642,0,0,1,5.072-2.623h.35a3.851,3.851,0,0,0,1.4-.175A9.919,9.919,0,0,0,40,112.424a8.384,8.384,0,0,0-.525,6.471Zm-9.968-7.87c-1.4-1.4-2.273-2.623-2.273-4.022v-.175a8.343,8.343,0,0,1,2.273-5.421c2.973-2.973,7.52-3.148,10.143-.35,2.623,2.623,2.448,7.17-.35,10.143a8.292,8.292,0,0,1-4.2,2.273,3.851,3.851,0,0,0-1.4-.175h-.35c-1.4,0-2.448-.874-3.847-2.273Zm-3.673-4.2v.35a6.642,6.642,0,0,1-2.623,5.072,3.633,3.633,0,0,1-2.1.874c-2.8.525-4.9-2.1-5.6-3.148a8.239,8.239,0,0,1-1.749-4.372,4.82,4.82,0,0,1,1.924-3.673,6.177,6.177,0,0,1,5.771-.874l.35.175a9.2,9.2,0,0,0,6.471-.35,8.328,8.328,0,0,0-2.448,5.946Zm-7-10.493c-.874-1.749-1.4-3.148-.874-4.547v-.175a7.315,7.315,0,0,1,3.847-4.372,7.1,7.1,0,0,1,9.793,2.8c1.749,3.323.175,7.52-3.5,9.444a5.693,5.693,0,0,1-2.448.7,7.9,7.9,0,0,1-3.5-.175h-.175c-1.574-.7-2.273-1.924-3.148-3.673Zm-2.273-5.072-.175.35a6.555,6.555,0,0,1-4.022,4.022,1.577,1.577,0,0,0-.874.175c-3.673.525-5.421-3.323-5.771-4.722a7.354,7.354,0,0,1-.175-4.722,4.024,4.024,0,0,1,2.973-2.8,6.25,6.25,0,0,1,5.771.874l.175.175a8.8,8.8,0,0,0,6.3,1.574,8.7,8.7,0,0,0-4.2,5.072Zm-4.2-17.488a6.54,6.54,0,0,1-4.022,2.448H7.3c-4.547,0-4.9-4.9-4.9-6.3a7.035,7.035,0,0,1,1.224-4.547A4.185,4.185,0,0,1,7.3,63.632a6.129,6.129,0,0,1,5.072,2.623l.175.175a9.949,9.949,0,0,0,5.6,3.5,9.949,9.949,0,0,0-5.6,3.5.611.611,0,0,1-.175.35Zm-.874-17.138a8.533,8.533,0,0,1-2.973-.175c-4.372-1.4-3.148-6.121-2.8-7.52A7.406,7.406,0,0,1,8.345,44.92a4.154,4.154,0,0,1,4.022-.525,6.161,6.161,0,0,1,4.022,4.022l.175.35a9.135,9.135,0,0,0,4.2,5.072,9.731,9.731,0,0,0-6.3,1.574l-.35.175a4.2,4.2,0,0,1-2.623,1.049Zm7.345-13.116c.874-1.749,1.749-2.973,3.148-3.5h.175a8.208,8.208,0,0,1,5.771.525c3.673,1.924,5.246,6.121,3.5,9.444a6.738,6.738,0,0,1-4.9,3.5,8.939,8.939,0,0,1-4.722-.7,6.81,6.81,0,0,1-3.847-4.372l-.175-.35c-.35-1.4,0-2.8,1.049-4.547Zm-3.148-5.6c-3.673-2.623-1.224-6.82-.35-8.045a7.354,7.354,0,0,1,3.673-2.973,4.209,4.209,0,0,1,4.022.7,6.642,6.642,0,0,1,2.623,5.072v.35a9.056,9.056,0,0,0,2.448,6.121,9.2,9.2,0,0,0-6.471-.35,5.422,5.422,0,0,1-1.224.35,6.682,6.682,0,0,1-4.722-1.224ZM27.232,33.2v-.35c0-1.4.874-2.623,2.273-4.022s2.623-2.273,4.022-2.273H33.7a8.343,8.343,0,0,1,5.421,2.273c2.973,2.973,3.148,7.345.35,10.143-2.623,2.623-7.17,2.448-10.143-.35a8.137,8.137,0,0,1-2.1-5.421Zm1.049-10.668c-2.8-3.673,1.049-6.82,2.273-7.695a8.239,8.239,0,0,1,4.372-1.749A4.82,4.82,0,0,1,38.6,15.015a6.177,6.177,0,0,1,.874,5.771l-.175.35a9.2,9.2,0,0,0,.35,6.471,9.056,9.056,0,0,0-6.121-2.448h-.35a6.309,6.309,0,0,1-4.9-2.623ZM40.7,21.486l.175-.35c.525-1.4,1.749-2.273,3.5-3.148s3.148-1.4,4.547-.874h.175a7.315,7.315,0,0,1,4.372,3.847,6.9,6.9,0,1,1-12.242,6.3,8.207,8.207,0,0,1-.525-5.771Zm4.372-9.618c-1.4-4.372,3.148-6.3,4.547-6.645a7.354,7.354,0,0,1,4.722-.175,4.024,4.024,0,0,1,2.8,2.973,6.25,6.25,0,0,1-.874,5.771l-.175.175a8.8,8.8,0,0,0-1.574,6.3,9.263,9.263,0,0,0-5.072-4.2l-.35-.175a6.555,6.555,0,0,1-4.022-4.022Zm16.439.7c1.924-.35,3.323-.35,4.722.525a.171.171,0,0,1,.175.175,7.967,7.967,0,0,1,2.973,5.072c.7,4.022-1.924,7.87-5.6,8.394a7.168,7.168,0,0,1-7.87-6.3,8.32,8.32,0,0,1,1.224-5.771l.175-.175c1.049-1.224,2.273-1.574,4.2-1.924ZM70.778,1.9a7.035,7.035,0,0,1,4.547,1.224A4.185,4.185,0,0,1,77.073,6.8a6.129,6.129,0,0,1-2.623,5.072l-.35.175a10.118,10.118,0,0,0-3.5,5.421,9.949,9.949,0,0,0-3.5-5.6l-.35-.175a6.217,6.217,0,0,1-2.448-5.072c0-4.372,4.9-4.722,6.471-4.722Zm9.094,10.668c1.924.35,3.323.7,4.2,1.924l.175.175a7.343,7.343,0,0,1,1.224,5.771c-.7,4.022-4.2,6.82-7.87,6.3S71.3,22.36,72,18.338a7.967,7.967,0,0,1,2.973-5.072l.175-.175c1.224-.874,2.8-.874,4.722-.525Zm4.372-4.722c1.4-4.372,6.121-3.148,7.52-2.8A7.406,7.406,0,0,1,95.786,7.67a4.154,4.154,0,0,1,.525,4.022,6.161,6.161,0,0,1-4.022,4.022l-.35.175a9.135,9.135,0,0,0-5.072,4.2,9.731,9.731,0,0,0-1.574-6.3l-.175-.35a5.837,5.837,0,0,1-.874-5.6ZM97.185,18.163c1.749.874,2.973,1.749,3.5,3.148v.175a8.208,8.208,0,0,1-.525,5.771c-1.924,3.673-6.121,5.246-9.444,3.5s-4.547-6.121-2.8-9.793a7.315,7.315,0,0,1,4.372-3.847l.35-.175C94.037,16.764,95.436,17.289,97.185,18.163Zm4.722,2.973-.175-.35a6.947,6.947,0,0,1,.874-5.6c2.623-3.673,6.82-1.224,8.045-.35a7.354,7.354,0,0,1,2.973,3.673,4.209,4.209,0,0,1-.7,4.022,6.642,6.642,0,0,1-5.072,2.623h-.35a9.056,9.056,0,0,0-6.121,2.448,8.384,8.384,0,0,0,.525-6.471Zm9.968,7.695c1.4,1.4,2.273,2.623,2.273,4.022v.175a8.343,8.343,0,0,1-2.273,5.421,8.811,8.811,0,0,1-4.372,2.273,6.455,6.455,0,0,1-5.771-1.749c-2.623-2.623-2.448-7.17.35-10.143a7.672,7.672,0,0,1,5.421-2.273h.35C109.427,26.557,110.476,27.432,111.875,28.831Zm3.673,4.2v-.35a6.642,6.642,0,0,1,2.623-5.072c3.673-2.623,6.82,1.049,7.695,2.273a8.239,8.239,0,0,1,1.749,4.372,4.82,4.82,0,0,1-1.924,3.673,6.177,6.177,0,0,1-5.771.874l-.35-.175a9.2,9.2,0,0,0-6.471.35,8.038,8.038,0,0,0,2.448-5.946Zm7,10.493c.874,1.749,1.4,3.148.874,4.547v.175a7.315,7.315,0,0,1-3.847,4.372,5.693,5.693,0,0,1-2.448.7,6.929,6.929,0,0,1-7.345-3.5c-1.749-3.323-.175-7.52,3.5-9.444a8.373,8.373,0,0,1,5.771-.525l.35.175c1.574.7,2.273,1.749,3.148,3.5Zm0,25.183c-4.022.7-7.87-1.924-8.394-5.6a7.168,7.168,0,0,1,6.3-7.87,8.32,8.32,0,0,1,5.771,1.224l.175.175c1.224.874,1.574,2.273,1.924,4.2s.35,3.323-.525,4.722a.171.171,0,0,1-.175.175,7.967,7.967,0,0,1-5.072,2.973Zm-8.394,8.045c.525-3.673,4.372-6.3,8.394-5.6a7.967,7.967,0,0,1,5.072,2.973l.175.175c.874,1.224.874,2.623.525,4.547s-.7,3.323-1.924,4.2l-.175.175a6.988,6.988,0,0,1-3.148,1.224,5.779,5.779,0,0,1-2.448,0,6.842,6.842,0,0,1-6.471-7.695Zm-6.82,6.3h0l-6.645-3.323h0l7.345,1.224a4.057,4.057,0,0,0,3.5-1.049l1.049-1.049a8.8,8.8,0,0,0,4.2,6.3,8.859,8.859,0,0,0-7.17,2.448l-.175-1.574a3.623,3.623,0,0,0-2.1-2.973Zm1.224,6.121a1.365,1.365,0,0,1-.7.7l-1.924,1.049c-.175.175-.35.175-.7.175a2.693,2.693,0,0,1-1.924-.35,2.836,2.836,0,0,1-1.574-1.924l-.35-2.1a1.33,1.33,0,0,1,.874-1.574l1.924-.874a2.594,2.594,0,0,1,2.273,0l.175.175a2.836,2.836,0,0,1,1.574,1.924l.35,2.1a.532.532,0,0,1,0,.7ZM97.709,100.707a3,3,0,0,1-3.148-3.148l.35-2.1c.175-.7.525-1.224,1.224-1.224l2.1-.35a2.4,2.4,0,0,1,2.1.7l.175.175a2.556,2.556,0,0,1,.874,2.273l-.35,2.1a1.2,1.2,0,0,1-1.224,1.224Zm-10.843,6.82a2.836,2.836,0,0,1-1.924-1.574,3.047,3.047,0,0,1-.175-2.448l1.049-1.924a1.529,1.529,0,0,1,1.574-.874l2.1.35a2.778,2.778,0,0,1,1.749,1.4l.175.175a3.047,3.047,0,0,1,.175,2.448L90.539,107a1.365,1.365,0,0,1-.7.7.611.611,0,0,0-.35.175h-.525l-2.1-.35ZM74.45,110.675a3.046,3.046,0,0,1-1.4-2.1,2.951,2.951,0,0,1,.7-2.448l1.574-1.574a1.67,1.67,0,0,1,1.749-.35L79,105.254a2.523,2.523,0,0,1,1.224,1.924v.175a2.951,2.951,0,0,1-.7,2.448l-1.574,1.574a3.823,3.823,0,0,1-.874.525,1.311,1.311,0,0,1-.874-.175A15.379,15.379,0,0,0,74.45,110.675Zm-7,1.224a4.706,4.706,0,0,0,2.1-2.973v-.175l1.224-7.17v0L72,108.927a4.484,4.484,0,0,0,2.1,3.148l1.4.7a8.4,8.4,0,0,0-4.547,5.946,8.4,8.4,0,0,0-4.547-5.946l1.049-.874Zm-5.771-1.924a3.419,3.419,0,0,1-.7-2.448,3.046,3.046,0,0,1,1.4-2.1l1.924-1.049a1.356,1.356,0,0,1,1.749.35L67.63,106.3a3.053,3.053,0,0,1,.7,2.1v.175a3.046,3.046,0,0,1-1.4,2.1l-1.924,1.049c-.175,0-.35.175-.525.175h-.35c-.35,0-.525-.175-.874-.525Zm-11.717-7.345a3.255,3.255,0,0,1,1.924-1.574l2.1-.35a1.33,1.33,0,0,1,1.574.874l.874,1.924a2.594,2.594,0,0,1,0,2.273l-.175.175a3.255,3.255,0,0,1-1.924,1.574l-2.1.35a1.31,1.31,0,0,1-.874-.175,1.365,1.365,0,0,1-.7-.7l-.874-1.924a2.5,2.5,0,0,1,.175-2.448Zm-9.094-8.045a2.556,2.556,0,0,1,2.273-.874l2.1.35c.7.175,1.224.525,1.224,1.224l.35,2.1a2.4,2.4,0,0,1-.7,2.1l-.175.175a2.428,2.428,0,0,1-1.749.874h-.7l-2.1-.35a1.2,1.2,0,0,1-1.224-1.224l-.35-2.1A3.386,3.386,0,0,1,40.873,94.586Zm-8.219-6.3.35-2.1a2.836,2.836,0,0,1,1.574-1.924,3.046,3.046,0,0,1,2.448-.175l1.924.874a1.529,1.529,0,0,1,.874,1.574l-.35,2.273a2.778,2.778,0,0,1-1.4,1.749l-.175.175a2.486,2.486,0,0,1-1.049.35,4.842,4.842,0,0,1-1.574-.175l-1.924-1.049a1.365,1.365,0,0,1-.7-.7v-.874Zm-4.022-9.444L29.681,79.9a4.228,4.228,0,0,0,3.5,1.049h.175l7.17-1.049-6.645,3.323a4.355,4.355,0,0,0-2.273,2.8l-.175,1.574a8.146,8.146,0,0,0-7.17-2.448,9.211,9.211,0,0,0,4.372-6.3Zm-1.4-1.924a7.168,7.168,0,0,1-6.3,7.87,8.32,8.32,0,0,1-5.771-1.224l-.175-.175c-1.224-.874-1.574-2.273-1.924-4.2s-.35-3.323.525-4.722l.175-.175a6.737,6.737,0,0,1,5.072-2.973C22.86,70.627,26.708,73.076,27.232,76.923Zm6.82-20.111a.171.171,0,0,1,.175.175L40.7,60.309l-7.345-1.224a4.057,4.057,0,0,0-3.5,1.049l-1.049,1.049a8.8,8.8,0,0,0-4.2-6.3h2.448a8.259,8.259,0,0,0,4.722-2.448l.175,1.574a3.381,3.381,0,0,0,2.1,2.8Zm-1.224-6.121a1.365,1.365,0,0,1,.7-.7l1.924-.874a2.487,2.487,0,0,1,2.448.175,2.836,2.836,0,0,1,1.574,1.924l.35,2.1a1.33,1.33,0,0,1-.874,1.574l-1.924.874a.642.642,0,0,1-.525.175,6.561,6.561,0,0,1-1.749-.175l-.175-.175A2.836,2.836,0,0,1,33,53.664l-.35-2.1a1.577,1.577,0,0,1,.175-.874ZM43.671,39.324a3,3,0,0,1,3.148,3.148l-.35,2.1c-.175.7-.525,1.224-1.224,1.224l-2.1.35a2.4,2.4,0,0,1-2.1-.7l-.175-.175A2.556,2.556,0,0,1,40,43l.35-2.1a1.2,1.2,0,0,1,1.224-1.224,8.778,8.778,0,0,1,2.1-.35Zm10.843-7A2.836,2.836,0,0,1,56.437,33.9a3.047,3.047,0,0,1,.175,2.448l-1.049,1.924c-.175.525-.525.7-1.049.874h-.525l-2.1-.35a2.778,2.778,0,0,1-1.749-1.4l-.175-.175a3.047,3.047,0,0,1-.175-2.448l1.049-1.924a1.365,1.365,0,0,1,.7-.7,1.577,1.577,0,0,1,.874-.175l2.1.35ZM66.93,29.181a3.046,3.046,0,0,1,1.4,2.1,2.951,2.951,0,0,1-.7,2.448L66.056,35.3a3.822,3.822,0,0,1-.874.525,1.31,1.31,0,0,1-.874-.175L62.383,34.6a2.523,2.523,0,0,1-1.224-1.924V32.5a2.951,2.951,0,0,1,.7-2.448l1.574-1.574a3.823,3.823,0,0,1,.874-.525,1.31,1.31,0,0,1,.874.175Zm7-1.049a4.706,4.706,0,0,0-2.1,2.973v.175L70.6,38.449,69.554,31.1a4.484,4.484,0,0,0-2.1-3.148l-1.4-.7A8.4,8.4,0,0,0,70.6,21.311a8.4,8.4,0,0,0,4.547,5.946c.175.175-1.224.874-1.224.874ZM79.7,30.055a3.419,3.419,0,0,1,.7,2.448A3.046,3.046,0,0,1,79,34.6l-1.924,1.049c-.175,0-.35.175-.525.175-.525,0-.874,0-1.224-.525l-1.574-1.574a3.225,3.225,0,0,1-.7-2.273v-.175a3.046,3.046,0,0,1,1.4-2.1l1.924-1.049a1.9,1.9,0,0,1,.874-.175,1.6,1.6,0,0,1,.874.525Zm11.717,7.17A3.255,3.255,0,0,1,89.49,38.8l-2.1.35a1.33,1.33,0,0,1-1.574-.874l-.874-1.749a2.594,2.594,0,0,1,0-2.273l.175-.175A3.255,3.255,0,0,1,87.042,32.5l2.1-.35a1.311,1.311,0,0,1,.874.175,1.365,1.365,0,0,1,.7.7l.874,1.924A2.177,2.177,0,0,1,91.414,37.225Zm9.094,8.045a2.428,2.428,0,0,1-1.749.874h-.7l-2.1-.35c-.7-.175-1.224-.525-1.224-1.224l-.35-2.1a2.4,2.4,0,0,1,.7-2.1l.175-.175a2.556,2.556,0,0,1,2.273-.874l2.1.35a1.2,1.2,0,0,1,1.224,1.224l.35,2.1a2.054,2.054,0,0,1-.7,2.273Zm8.219,6.471-.35,2.1a2.836,2.836,0,0,1-1.574,1.924,2.486,2.486,0,0,1-1.049.35,4.842,4.842,0,0,1-1.574-.175l-1.924-.874a1.529,1.529,0,0,1-.874-1.574l.35-2.1a2.778,2.778,0,0,1,1.4-1.749l.175-.175a3.047,3.047,0,0,1,2.448-.175l1.924,1.049a1.365,1.365,0,0,1,.7.7C108.727,51.041,108.727,51.391,108.727,51.74Zm4.022,9.444L111.7,60.135a4.228,4.228,0,0,0-3.5-1.049h-.175l-7.345,1.224h0l6.646-3.323a4.355,4.355,0,0,0,2.273-2.8l.35-1.574a8.146,8.146,0,0,0,7.17,2.448,7.954,7.954,0,0,0-4.372,6.121ZM109.6,71.152l-7.345-1.224h0L109.6,68.7a3.845,3.845,0,0,0,2.973-2.1l.7-1.4a8.4,8.4,0,0,0,5.946,4.547,8.4,8.4,0,0,0-5.946,4.547l-.7-1.4a4.143,4.143,0,0,0-2.973-1.749ZM105.229,76.4a1.356,1.356,0,0,1,.35-1.749l1.574-1.574a3.225,3.225,0,0,1,2.273-.7h.175a3.046,3.046,0,0,1,2.1,1.4l1.049,1.924a1.9,1.9,0,0,1,.175.874c0,.35-.175.525-.525.874l-1.574,1.574a3.515,3.515,0,0,1-1.4.7h-1.049a3.046,3.046,0,0,1-2.1-1.4c-.175-.175-1.049-1.924-1.049-1.924Zm-6.471.7-1.049-1.924a1.356,1.356,0,0,1,.35-1.749l1.574-1.574a3.7,3.7,0,0,1,2.448-.7l4.372.7-.175.175L104.7,73.6a3.575,3.575,0,0,0-.874,1.574,2.154,2.154,0,0,0,.35,1.749l1.049,1.924c0,.175.175.175.175.35l-4.547-.874a2.426,2.426,0,0,1-2.1-1.224Zm-9.444,15.04.35-2.1c.175-.7.525-1.224,1.224-1.224l2.1-.35a2.411,2.411,0,0,1,2.273.874l3.148,3.148h-.35l-2.1.35a3.3,3.3,0,0,0-1.574.7,2.217,2.217,0,0,0-.7,1.574l-.35,2.1v.35L90.19,94.411a2.411,2.411,0,0,1-.874-2.273Zm-2.1-3.148a3.044,3.044,0,0,1-2.623-.874,2.968,2.968,0,1,1,4.2,0A1.837,1.837,0,0,1,87.217,88.99Zm-2.1.874a3.958,3.958,0,0,0,3.148.175l-.35,2.1a3.323,3.323,0,0,0,.525,2.448,3.732,3.732,0,0,0-2.1-1.224l-2.1-.35a4.37,4.37,0,0,0,.874-3.148Zm-3.673,6.82.874-1.924a1.529,1.529,0,0,1,1.574-.874l2.1.35a2.836,2.836,0,0,1,1.924,1.574l1.924,3.847h-.35l-2.1-.35a2.877,2.877,0,0,0-1.749.175,2.755,2.755,0,0,0-1.224,1.224l-.7,2.1c0,.175-.175.175-.175.35L81.62,99.308A2.827,2.827,0,0,1,81.445,96.685Zm-8.744,2.1,1.574-1.574a1.67,1.67,0,0,1,1.749-.35l1.924,1.049a3.046,3.046,0,0,1,1.4,2.1l.7,4.372-.175-.175-1.924-1.049a3.153,3.153,0,0,0-1.749-.35,3.575,3.575,0,0,0-1.574.874l-1.574,1.574-.175.175-.7-4.372A2.121,2.121,0,0,1,72.7,98.783Zm-4.547-2.448A4.523,4.523,0,0,0,70.6,94.411a4.523,4.523,0,0,0,2.448,1.924l-1.4,1.4a4.578,4.578,0,0,0-1.049,2.273,5.42,5.42,0,0,0-1.049-2.273l-1.4-1.4Zm-5.946,3.673a3.046,3.046,0,0,1,1.4-2.1l1.924-1.049a1.356,1.356,0,0,1,1.749.35l1.574,1.574a2.951,2.951,0,0,1,.7,2.448l-.7,4.2-.175-.175-1.574-1.574a3.575,3.575,0,0,0-1.574-.874,3.153,3.153,0,0,0-1.749.35L61.859,104.2c-.175,0-.175.175-.35.175Zm-3.148-7.17a3.148,3.148,0,0,1-1.4-4.022,2.923,2.923,0,0,1,4.022-1.224,3.148,3.148,0,0,1,1.4,4.022,3.08,3.08,0,0,1-2.273,1.574A2.154,2.154,0,0,1,59.061,92.837ZM53.29,95.985a3.255,3.255,0,0,1,1.924-1.574l2.1-.35a1.33,1.33,0,0,1,1.574.874l.874,1.924a2.487,2.487,0,0,1-.175,2.448l-1.924,3.847c0-.175,0-.175-.175-.35l-.7-1.749a2.755,2.755,0,0,0-1.224-1.224,2.877,2.877,0,0,0-1.749-.175l-2.1.175h-.35l1.924-3.847Zm.175-4.022-.35-2.1a3.958,3.958,0,0,0,3.148-.175,3.769,3.769,0,0,0,.874,2.973l-2.1.35a3.732,3.732,0,0,0-2.1,1.224,4.841,4.841,0,0,0,.525-2.273Zm-1.049-8.045a2.968,2.968,0,0,1,4.2,4.2,3.575,3.575,0,0,1-1.574.874,3.044,3.044,0,0,1-2.623-.874,2.856,2.856,0,0,1,0-4.2Zm-6.3,5.421a2.556,2.556,0,0,1,2.273-.874l2.1.35c.7.175,1.224.525,1.224,1.224l.35,2.1a2.411,2.411,0,0,1-.874,2.273l-2.973,3.148v-.35l-.35-2.1a3.3,3.3,0,0,0-.7-1.574,2.217,2.217,0,0,0-1.574-.7l-2.1-.35h-.35c-.175,0,2.973-3.148,2.973-3.148ZM36.326,78.847l1.049-1.924a3.153,3.153,0,0,0,.35-1.749,3.575,3.575,0,0,0-.874-1.574l-1.574-1.574-.175-.175,4.372-.7a2.951,2.951,0,0,1,2.448.7L43.5,73.426a1.67,1.67,0,0,1,.35,1.749L42.8,77.1a3.046,3.046,0,0,1-2.1,1.4l-4.372.7ZM28.806,75.7l1.049-1.924a3.046,3.046,0,0,1,2.1-1.4,2.951,2.951,0,0,1,2.448.7l1.574,1.574a1.67,1.67,0,0,1,.35,1.749l-1.049,1.924a2.523,2.523,0,0,1-1.924,1.224h-.175a2.951,2.951,0,0,1-2.448-.7l-1.574-1.574a3.823,3.823,0,0,1-.525-.874,1.322,1.322,0,0,1,.175-.7Zm2.973-7h.175l7.17,1.224-7.345,1.224a4.484,4.484,0,0,0-3.148,2.1l-.7,1.4A8.4,8.4,0,0,0,21.986,70.1a8.4,8.4,0,0,0,5.946-4.547l.7,1.4A4.336,4.336,0,0,0,31.779,68.7Zm4.372-5.072a1.356,1.356,0,0,1-.35,1.749l-1.574,1.574a3.515,3.515,0,0,1-1.4.7H31.779a3.046,3.046,0,0,1-2.1-1.4l-1.049-1.924a1.9,1.9,0,0,1-.175-.874c0-.35.175-.525.525-.874l1.574-1.574a3.419,3.419,0,0,1,2.448-.7,3.046,3.046,0,0,1,2.1,1.4,10.445,10.445,0,0,1,1.049,1.924Zm6.471-.7,1.049,1.924a1.356,1.356,0,0,1-.35,1.749l-1.574,1.574a3.515,3.515,0,0,1-1.4.7H39.3l-4.372-.7L35.1,68l1.574-1.574a3.575,3.575,0,0,0,.874-1.574,2.154,2.154,0,0,0-.35-1.749l-1.049-1.924c0-.175-.175-.175-.175-.35l4.372.7a3.051,3.051,0,0,1,2.273,1.4Zm9.444-15.04-.35,2.1c-.175.7-.525,1.224-1.224,1.224l-2.1.35a2.411,2.411,0,0,1-2.273-.874l-3.148-3.148h.35l2.1-.35a3.3,3.3,0,0,0,1.574-.7,2.217,2.217,0,0,0,.7-1.574l.35-2.1v-.35l3.148,3.148a2.277,2.277,0,0,1,.874,2.273Zm4.547,3.847a2.856,2.856,0,0,1,0,4.2,3.575,3.575,0,0,1-1.574.874,3.044,3.044,0,0,1-2.623-.874,2.968,2.968,0,0,1,4.2-4.2Zm-.35-1.574a3.958,3.958,0,0,0-3.148-.175l.35-2.1a3.323,3.323,0,0,0-.525-2.448,3.732,3.732,0,0,0,2.1,1.224l2.1.35a4.37,4.37,0,0,0-.874,3.148Zm3.673-7-1.049,1.924a1.529,1.529,0,0,1-1.574.874l-2.1-.525a2.836,2.836,0,0,1-1.924-1.574l-1.924-3.847h.35l2.1.35h.874c.35,0,.525-.175.874-.175a2.755,2.755,0,0,0,1.224-1.224l1.049-1.924c0-.175,0-.175.175-.35l1.924,3.847a3.38,3.38,0,0,1,0,2.623Zm8.744-1.924-1.574,1.574a3.823,3.823,0,0,1-.874.525,1.31,1.31,0,0,1-.874-.175l-1.924-1.049a4.772,4.772,0,0,1-1.224-2.273l-.7-4.372.175.175L63.608,36.7a3.153,3.153,0,0,0,1.749.35,3.575,3.575,0,0,0,1.574-.874L68.5,34.6l.175-.175.7,4.372a3.134,3.134,0,0,1-.7,2.448Zm4.547,2.273a4.523,4.523,0,0,0-2.448,1.924,4.523,4.523,0,0,0-2.448-1.924l1.4-1.4a4.578,4.578,0,0,0,1.049-2.273,5.42,5.42,0,0,0,1.049,2.273l1.4,1.4Zm5.946-3.673a3.046,3.046,0,0,1-1.4,2.1L75.849,43c-.175,0-.35.175-.525.175-.525,0-.874,0-1.224-.525l-1.574-1.574a3.419,3.419,0,0,1-.7-2.448l.7-4.2.175.175,1.574,1.574a3.575,3.575,0,0,0,1.574.874A3.153,3.153,0,0,0,77.6,36.7l1.924-1.049c.175,0,.175-.175.35-.175l-.7,4.372Zm3.323,7.17a2.923,2.923,0,0,1,1.224,4.022,3.08,3.08,0,0,1-2.273,1.574,2.154,2.154,0,0,1-1.749-.35,3.148,3.148,0,0,1-1.4-4.022,3.3,3.3,0,0,1,4.2-1.224Zm5.6-3.148a3.255,3.255,0,0,1-1.924,1.574l-2.1.35a1.33,1.33,0,0,1-1.574-.874l-1.049-1.749a2.487,2.487,0,0,1,.175-2.448l1.924-3.847c0,.175,0,.175.175.35l.874,1.924a2.755,2.755,0,0,0,1.224,1.224,2.877,2.877,0,0,0,1.749.175l2.1-.35h.35c0-.175-1.924,3.673-1.924,3.673Zm-.175,4.022.35,2.1a3.958,3.958,0,0,0-3.148.175,3.769,3.769,0,0,0-.874-2.973l2.1-.35a3.732,3.732,0,0,0,2.1-1.224,5.385,5.385,0,0,0-.525,2.273Zm1.049,8.045a3.574,3.574,0,0,1-1.574.874,3.044,3.044,0,0,1-2.623-.874,2.968,2.968,0,1,1,4.2,0Zm6.3-5.421a2.428,2.428,0,0,1-1.749.874h-.7l-2.1-.35c-.7-.175-1.224-.525-1.224-1.224l-.35-2.1a2.411,2.411,0,0,1,.874-2.273l3.148-2.973v.35l.35,2.1a3.3,3.3,0,0,0,.7,1.574,2.217,2.217,0,0,0,1.574.7l2.1.35h.35C98.409,47.543,95.261,50.516,95.261,50.516Zm1.924,21.86a4.523,4.523,0,0,0-1.924-2.448,4.523,4.523,0,0,0,1.924-2.448l1.4,1.4a4.578,4.578,0,0,0,2.273,1.049,5.42,5.42,0,0,0-2.273,1.049c.175,0-1.4,1.4-1.4,1.4ZM96.66,75.7l.874,1.749a3.828,3.828,0,0,0,1.749,1.574,3.846,3.846,0,0,0-2.448.35l-1.924.874a4.749,4.749,0,0,0-1.049-2.973A2.967,2.967,0,0,0,96.66,75.7Zm-8.394,3.323a3.011,3.011,0,1,1,5.421,2.623,3.08,3.08,0,0,1-2.273,1.574,2.154,2.154,0,0,1-1.749-.35A2.8,2.8,0,0,1,88.266,79.022Zm-1.749-1.574a2.15,2.15,0,0,1-1.4-2.8,1.849,1.849,0,0,1,1.049-1.224,2.005,2.005,0,0,1,1.749-.175,2.15,2.15,0,0,1,1.4,2.8c0,.175,0,.175-.175.35a1.791,1.791,0,0,1-1.049.874c-.175.175-.35.175-.7.175C87.042,77.623,86.692,77.448,86.517,77.448ZM83.369,81.82a2.238,2.238,0,0,1-.525-3.148,1.783,1.783,0,0,1,1.4-.874,1.677,1.677,0,0,1,1.574.35,2.238,2.238,0,0,1,.525,3.148c0,.175-.175.175-.175.35a1.881,1.881,0,0,1-2.8.175ZM79.7,87.591a2.973,2.973,0,0,1,2.8,5.246c-.35.175-.525.175-.874.35a2.933,2.933,0,0,1-3.148-1.574A2.792,2.792,0,0,1,79.7,87.591Zm-2.973.874h-.35a3.851,3.851,0,0,1-1.4-.175,2.351,2.351,0,0,1-1.049-1.224,2.15,2.15,0,0,1,1.4-2.8,2.069,2.069,0,0,1,1.749.175,2.351,2.351,0,0,1,1.049,1.224A2.15,2.15,0,0,1,76.724,88.465Zm-2.973,1.049a3.019,3.019,0,1,1-2.448,3.5A2.914,2.914,0,0,1,73.751,89.515Zm-4.547-.7a2.6,2.6,0,0,1-.7-1.574,2.315,2.315,0,0,1,2.273-2.273,1.9,1.9,0,0,1,1.574.7,2.6,2.6,0,0,1,.7,1.574,2.421,2.421,0,0,1-1.924,2.273h-.7C69.9,89.34,69.379,89.165,69.2,88.815Zm-5.072,3.148a3.019,3.019,0,1,1,5.946,1.049,2.786,2.786,0,0,1-2.448,2.448h-.874A3.227,3.227,0,0,1,64.132,91.963Zm-.874-6.3a2.15,2.15,0,0,1,2.8-1.4,1.849,1.849,0,0,1,1.224,1.049,2.005,2.005,0,0,1,.175,1.749,2.579,2.579,0,0,1-1.749,1.574H64.657c-.175,0-.175,0-.35-.175a2.113,2.113,0,0,1-1.049-2.8ZM82.67,82.694a2.238,2.238,0,0,1-.525,3.148c-.175,0-.175.175-.35.175-.175.175-.35.175-.7.175h-.7a2.4,2.4,0,0,1-1.4-.874,2.238,2.238,0,0,1,.525-3.148,1.784,1.784,0,0,1,1.574-.35,1.837,1.837,0,0,1,1.574.874Zm0-25.358a1.783,1.783,0,0,1-1.4.874,2.351,2.351,0,0,1-1.574-.35,1.783,1.783,0,0,1-.874-1.4,1.677,1.677,0,0,1,.35-1.574,2.238,2.238,0,0,1,3.148-.525c.175,0,.175.175.35.175a2.819,2.819,0,0,1,.7,1.224,6.212,6.212,0,0,1-.7,1.574Zm4.2,2.8a2.4,2.4,0,0,1-.874,1.4,2.955,2.955,0,0,1-.874.35,2.006,2.006,0,0,1-2.1-.874,1.784,1.784,0,0,1-.35-1.574,2.4,2.4,0,0,1,.874-1.4,2.238,2.238,0,0,1,3.148.525c0,.175.175.175.175.35Zm2.448,3.847v.35a3.851,3.851,0,0,1-.175,1.4,2.351,2.351,0,0,1-1.224,1.049h-.35a2.269,2.269,0,0,1-2.448-1.574,2.069,2.069,0,0,1,.175-1.749,2.351,2.351,0,0,1,1.224-1.049,2.6,2.6,0,0,1,2.8,1.574Zm.874,5.946v.35a1.77,1.77,0,0,1-.7,1.224,2.819,2.819,0,0,1-1.224.7h-.35a2.315,2.315,0,0,1-2.273-2.273,1.9,1.9,0,0,1,.7-1.574,2.6,2.6,0,0,1,1.574-.7A2.444,2.444,0,0,1,90.19,69.928Zm3.5-11.717a2.988,2.988,0,0,1-1.4,4.022c-.35.175-.525.175-.874.35a2.933,2.933,0,0,1-3.148-1.574,2.988,2.988,0,0,1,1.4-4.022A3.079,3.079,0,0,1,93.687,58.211Zm.35,4.2a4.749,4.749,0,0,0,1.049-2.973l1.924.874a3.846,3.846,0,0,0,2.448.35,3.828,3.828,0,0,0-1.749,1.574L96.66,64.157A3.958,3.958,0,0,0,94.037,62.408Zm-.35,8.219a2.914,2.914,0,0,1,2.448,3.5,2.786,2.786,0,0,1-2.448,2.448h-.874a2.914,2.914,0,0,1-2.448-3.5A2.833,2.833,0,0,1,93.687,70.627Zm0-1.224a3.019,3.019,0,1,1,2.448-3.5A3,3,0,0,1,93.687,69.4ZM90.714,52.44l2.1.35a3.323,3.323,0,0,0,2.448-.525,3.732,3.732,0,0,0-1.224,2.1l-.35,2.1a3.769,3.769,0,0,0-2.973-.874,4.853,4.853,0,0,0,0-3.148ZM62.383,81.3a3.447,3.447,0,0,0-2.623-.525V80.6a2.428,2.428,0,0,0-.35-1.924.376.376,0,0,0-.35-.35A2.989,2.989,0,0,0,56.787,77.1l.175-.175A3.459,3.459,0,0,0,57.312,75a.642.642,0,0,0-.175-.525,3.791,3.791,0,0,0-1.749-1.924l.175-.175a2.428,2.428,0,0,0,.874-1.749V70.1a3.927,3.927,0,0,0-1.049-2.448.171.171,0,0,0,.175-.175,5.323,5.323,0,0,0,1.4-1.4c0-.175.175-.35.175-.525a2.79,2.79,0,0,0-.35-2.623h.175a3.332,3.332,0,0,0,1.749-.874l.35-.35a3.447,3.447,0,0,0,.525-2.623h.175a2.428,2.428,0,0,0,1.924-.35.611.611,0,0,0,.35-.175,2.989,2.989,0,0,0,1.224-2.273l.175.175a3.459,3.459,0,0,0,1.924.35.642.642,0,0,0,.525-.175A3.791,3.791,0,0,0,67.8,54.888l.175.175a2.428,2.428,0,0,0,1.749.874h.525A3.927,3.927,0,0,0,72.7,54.888a.171.171,0,0,0,.175.175,5.323,5.323,0,0,0,1.4,1.4c.175,0,.35.175.525.175a2.79,2.79,0,0,0,2.623-.35v.175a3.332,3.332,0,0,0,.874,1.749l.35.35a3.447,3.447,0,0,0,2.623.525v.175a2.428,2.428,0,0,0,.35,1.924.376.376,0,0,0,.35.35,2.989,2.989,0,0,0,2.273,1.224l-.175.175a3.459,3.459,0,0,0-.35,1.924.642.642,0,0,0,.175.525A3.791,3.791,0,0,0,85.643,67.3l-.175.175a2.428,2.428,0,0,0-.874,1.749v.525A3.927,3.927,0,0,0,85.643,72.2a.171.171,0,0,0-.175.175,5.323,5.323,0,0,0-1.4,1.4c0,.175-.175.35-.175.525a2.79,2.79,0,0,0,.35,2.623h-.175a3.332,3.332,0,0,0-1.749.874l-.35.35a3.447,3.447,0,0,0-.525,2.623h-.175a2.428,2.428,0,0,0-1.924.35.376.376,0,0,0-.35.35,2.989,2.989,0,0,0-1.224,2.273l-.175-.175a3.459,3.459,0,0,0-1.924-.35.642.642,0,0,0-.525.175,3.791,3.791,0,0,0-1.924,1.749l-.175-.175a2.428,2.428,0,0,0-1.749-.874h-.525a3.927,3.927,0,0,0-2.448,1.049.171.171,0,0,0-.175-.175,5.323,5.323,0,0,0-1.4-1.4c-.175,0-.35-.175-.525-.175a2.79,2.79,0,0,0-2.623.35v-.175a3.332,3.332,0,0,0-.874-1.749C62.733,81.47,62.558,81.47,62.383,81.3Zm-3.673,1.224a2.238,2.238,0,0,1,3.148-.525,1.783,1.783,0,0,1,.874,1.4,1.677,1.677,0,0,1-.35,1.574,1.783,1.783,0,0,1-1.4.874,1.677,1.677,0,0,1-1.574-.35c-.175,0-.175-.175-.35-.175a2.819,2.819,0,0,1-.7-1.224,1.887,1.887,0,0,1,.35-1.574Zm-4.2-2.8a2.4,2.4,0,0,1,.874-1.4,2.238,2.238,0,0,1,3.148.525,1.784,1.784,0,0,1,.35,1.574,2.4,2.4,0,0,1-.874,1.4,2.955,2.955,0,0,1-.874.35,2.006,2.006,0,0,1-2.1-.874c0-.175-.175-.175-.175-.35a1.476,1.476,0,0,1-.35-1.224ZM52.24,76.049V75.7a3.851,3.851,0,0,1,.175-1.4,2.351,2.351,0,0,1,1.224-1.049,2.15,2.15,0,0,1,2.8,1.4,2.069,2.069,0,0,1-.175,1.749,2.351,2.351,0,0,1-1.224,1.049h-.35A2.049,2.049,0,0,1,52.24,76.049Zm-4.547,5.6a3.011,3.011,0,1,1,4.022,1.4c-.35.175-.525.175-.874.35A3.33,3.33,0,0,1,47.693,81.645ZM44.72,75.874a3.958,3.958,0,0,0,2.623,1.749A4.749,4.749,0,0,0,46.294,80.6l-1.924-.874a3.846,3.846,0,0,0-2.448-.35A3.828,3.828,0,0,0,43.671,77.8ZM44.2,67.48a4.523,4.523,0,0,0,1.924,2.448A4.523,4.523,0,0,0,44.2,72.376l-1.4-1.4a4.578,4.578,0,0,0-2.273-1.049H40.7a3.989,3.989,0,0,0,2.1-1.049l1.4-1.4Zm.525-3.323-.874-1.924A5.558,5.558,0,0,0,42.1,60.484a1.916,1.916,0,0,0,1.4,0,1.336,1.336,0,0,0,.874-.35l1.924-.874a4.749,4.749,0,0,0,1.049,2.973A4.944,4.944,0,0,0,44.72,64.157Zm.525,1.749a3.019,3.019,0,0,1,5.946,1.049A2.786,2.786,0,0,1,48.743,69.4h-.874A3,3,0,0,1,45.245,65.906Zm5.946,7.17a3.019,3.019,0,0,1-5.946,1.049,3.247,3.247,0,0,1,2.448-3.5A3.094,3.094,0,0,1,51.191,73.076Zm1.924-12.067a3.08,3.08,0,0,1-2.273,1.574,2.154,2.154,0,0,1-1.749-.35,3.148,3.148,0,0,1-1.4-4.022,2.923,2.923,0,0,1,4.022-1.224A2.988,2.988,0,0,1,53.115,61.009Zm2.448,8.919a1.9,1.9,0,0,1-.7,1.574,2.819,2.819,0,0,1-1.224.7h-.35a2.315,2.315,0,0,1-2.273-2.273v-.35a1.77,1.77,0,0,1,.7-1.224,2.6,2.6,0,0,1,1.574-.7,2.31,2.31,0,0,1,2.273,2.273Zm-.525-7.345a2.15,2.15,0,0,1,1.4,2.8,1.849,1.849,0,0,1-1.049,1.224c-.175.175-.35.175-.7.175H53.639a2.15,2.15,0,0,1-1.4-2.8c0-.175,0-.175.175-.35a1.791,1.791,0,0,1,1.049-.874C53.814,62.408,54.339,62.408,55.038,62.583Zm2.973-4.547a2.238,2.238,0,0,1,.525,3.148,2.4,2.4,0,0,1-1.4.874,1.677,1.677,0,0,1-1.574-.35,2.238,2.238,0,0,1-.525-3.148c0-.175.175-.175.175-.35a2.819,2.819,0,0,1,1.224-.7,2.821,2.821,0,0,1,1.574.525Zm3.847-.175c-.35.175-.525.35-.874.35h-.7a2.4,2.4,0,0,1-1.4-.874,2.238,2.238,0,0,1,.525-3.148c.175,0,.175-.175.35-.175.175-.175.7-.175,1.049-.175a2.4,2.4,0,0,1,1.4.874,2.079,2.079,0,0,1-.35,3.148Zm-.175-5.421c-.35.175-.525.175-.874.35a2.933,2.933,0,0,1-3.148-1.574,2.988,2.988,0,0,1,1.4-4.022,3.079,3.079,0,0,1,4.022,1.224,3.037,3.037,0,0,1-1.4,4.022Zm2.973-.874h.35a3.851,3.851,0,0,1,1.4.175,2.351,2.351,0,0,1,1.049,1.224,2.15,2.15,0,0,1-1.4,2.8h-.35a3.851,3.851,0,0,1-1.4-.175,2.351,2.351,0,0,1-1.049-1.224,2.15,2.15,0,0,1,1.4-2.8Zm2.973-1.049a3.019,3.019,0,0,1-1.049-5.946,3.247,3.247,0,0,1,3.5,2.448A3.094,3.094,0,0,1,67.63,50.516Zm4.722.7a2.6,2.6,0,0,1,.7,1.574,2.1,2.1,0,0,1-1.924,2.1h-.35a1.9,1.9,0,0,1-1.574-.7,2.6,2.6,0,0,1-.7-1.574,2.315,2.315,0,0,1,2.273-2.273h.35c.35.35.874.525,1.224.874Zm5.6,1.4a2.005,2.005,0,0,1,.175,1.749,2.579,2.579,0,0,1-1.749,1.574H75.325A1.849,1.849,0,0,1,74.1,54.888a2.005,2.005,0,0,1-.175-1.749,2.15,2.15,0,0,1,2.8-1.4c.175,0,.175,0,.35.175A.892.892,0,0,1,77.948,52.615Zm-.7-4.722A2.971,2.971,0,0,1,74.8,50.341h-.874A3.019,3.019,0,0,1,74.975,44.4a3.29,3.29,0,0,1,2.273,3.5ZM50.841,55.588a3.769,3.769,0,0,0-2.973.874l-.35-2.1a3.732,3.732,0,0,0-1.224-2.1,5.586,5.586,0,0,0,2.448.525l2.1-.35a3.345,3.345,0,0,0,0,3.148Zm-.175,32-2.1-.35a3.323,3.323,0,0,0-2.448.525,3.732,3.732,0,0,0,1.224-2.1l.35-2.1a3.769,3.769,0,0,0,2.973.874,4.845,4.845,0,0,0,0,3.148Zm39.873-3.148h1.049a3.882,3.882,0,0,0,1.924-.874l.35,2.1a3.732,3.732,0,0,0,1.224,2.1,5.586,5.586,0,0,0-2.448-.525l-2.1.35a3.34,3.34,0,0,0,0-3.148ZM106.1,61.709a2.523,2.523,0,0,1,1.924-1.224h.175a2.951,2.951,0,0,1,2.448.7l1.574,1.574a3.823,3.823,0,0,1,.525.874,1.311,1.311,0,0,1-.175.874l-1.049,1.574a3.046,3.046,0,0,1-2.1,1.4,2.951,2.951,0,0,1-2.448-.7L105.4,65.206a1.67,1.67,0,0,1-.35-1.749C105.229,63.632,106.1,61.709,106.1,61.709Zm-1.049-.525-1.049,1.924a3.153,3.153,0,0,0-.35,1.749,2.418,2.418,0,0,0,.874,1.574L106.1,68l.175.175-4.372.7a2.951,2.951,0,0,1-2.448-.7l-1.574-1.574a1.67,1.67,0,0,1-.35-1.749l1.049-1.924a3.046,3.046,0,0,1,2.1-1.4l4.372-.7C105.229,61.009,105.054,61.009,105.054,61.184Zm-4.547-6.3a2.755,2.755,0,0,0,1.224,1.224l1.924,1.049c.175,0,.175.175.35.175l-3.847,1.749a2.486,2.486,0,0,1-1.049.35,4.842,4.842,0,0,1-1.574-.175l-1.924-.874a1.529,1.529,0,0,1-.874-1.574l.35-2.1A2.836,2.836,0,0,1,96.66,52.79l3.847-1.924v.35l-.35,2.1a6.49,6.49,0,0,0,.35,1.574ZM80.221,43.7l.874,1.924a4.749,4.749,0,0,0-2.973,1.049,4.413,4.413,0,0,0-1.749-2.623l1.924-.874a3.828,3.828,0,0,0,1.574-1.749A5.165,5.165,0,0,0,80.221,43.7ZM61.334,41.247A3.828,3.828,0,0,0,62.908,43l1.924,1.049a3.958,3.958,0,0,0-1.749,2.623,4.749,4.749,0,0,0-2.973-1.049l.874-1.924A2.976,2.976,0,0,0,61.334,41.247ZM41.048,53.139l-.35-2.1v-.35l3.847,1.924a3.255,3.255,0,0,1,1.574,1.924l.35,2.1a1.33,1.33,0,0,1-.874,1.574l-1.924.874c-.175.175-.35.175-.7.175a2.693,2.693,0,0,1-1.924-.35L37.2,56.987c.175,0,.175,0,.35-.175l1.924-.874A2.755,2.755,0,0,0,40.7,54.713a1.677,1.677,0,0,0,.35-1.574Zm-.175,32a2.755,2.755,0,0,0-1.224-1.224l-1.924-.874c-.175,0-.175,0-.35-.175l3.847-1.924a3.047,3.047,0,0,1,2.448-.175l1.924.874a1.529,1.529,0,0,1,.874,1.574l-.35,2.1a2.836,2.836,0,0,1-1.574,1.924L40.7,89.165v-.35l.35-2.1a1.7,1.7,0,0,0-.175-1.574ZM61.159,96.16l-.874-1.924h.874a3.989,3.989,0,0,0,2.1-1.049,4.413,4.413,0,0,0,1.749,2.623l-1.924.874a3.828,3.828,0,0,0-1.574,1.749,5.165,5.165,0,0,0-.35-2.273Zm18.887,2.448a3.828,3.828,0,0,0-1.574-1.749L76.549,95.81A3.958,3.958,0,0,0,78.3,93.187a4.749,4.749,0,0,0,2.973,1.049L80.4,96.16A3.846,3.846,0,0,0,80.046,98.609Zm20.286-11.717.35,2.1v.35l-3.847-1.924a2.836,2.836,0,0,1-1.574-1.924l-.35-2.1a1.33,1.33,0,0,1,.874-1.574l1.924-.874a2.487,2.487,0,0,1,2.448.175l3.847,1.924c-.175,0-.175,0-.35.175l-1.924.874a2.755,2.755,0,0,0-1.224,1.224A2.193,2.193,0,0,0,100.333,86.891Zm2.448-44.07-.175-1.574a8.709,8.709,0,0,0,7.52.175,8.423,8.423,0,0,0-2.1,7.17l-1.4-.7a3.931,3.931,0,0,0-3.673.175.171.171,0,0,0-.175.175L96.31,51.565h0l5.246-5.246a4.787,4.787,0,0,0,1.224-3.5Zm-9.968-8.569-.7-1.4a7.511,7.511,0,0,0,2.8,0,9.793,9.793,0,0,0,4.547-2.1,8.709,8.709,0,0,0,.175,7.52L98.059,38.1a4.558,4.558,0,0,0-3.5,1.224l-.175.175L89.315,44.57l-.175.175V44.57l3.5-6.645a4.52,4.52,0,0,0,.175-3.673Zm-4.547-3.323-1.574.175a4.261,4.261,0,0,0-2.973,2.273.171.171,0,0,1-.175.175l-3.323,6.471,1.224-7.345a4.057,4.057,0,0,0-1.049-3.5l-1.049-1.049h.175a8.179,8.179,0,0,0,5.946-4.2A9.631,9.631,0,0,0,88.266,30.929Zm-32.7-7.17a8.322,8.322,0,0,0,6.3,4.2l-1.049,1.049a4.057,4.057,0,0,0-1.049,3.5v.175l1.049,7.17L57.487,33.2a4.355,4.355,0,0,0-2.8-2.273l-1.574-.175a7.809,7.809,0,0,0,2.448-7Zm-13.466,7a8.58,8.58,0,0,0,7.17,2.1l-.7,1.4a3.931,3.931,0,0,0,.175,3.673.171.171,0,0,0,.175.175L52.24,44.57l-5.246-5.246A3.839,3.839,0,0,0,43.5,38.1l-1.574.175a8.709,8.709,0,0,0,.175-7.52Zm-2.273,15.39.175.175,5.072,5.072-6.646-3.5a3.931,3.931,0,0,0-3.673-.175l-1.4.874a8.268,8.268,0,0,0-2.1-7.17,8.709,8.709,0,0,0,7.52-.175L38.6,42.821a4.189,4.189,0,0,0,1.224,3.323ZM13.591,65.381c-.874-1.224-.874-2.623-.525-4.547s.7-3.323,1.924-4.2l.175-.175a7.343,7.343,0,0,1,5.771-1.224c4.022.7,6.82,4.2,6.3,7.87a7.07,7.07,0,0,1-5.946,5.6,5.778,5.778,0,0,1-2.448,0,7.967,7.967,0,0,1-5.072-2.973l-.175-.35ZM38.6,97.209l.175,1.574a8.709,8.709,0,0,0-7.52-.175,8.423,8.423,0,0,0,2.1-7.17l1.4.7a3.335,3.335,0,0,0,2.273.35,2.326,2.326,0,0,0,1.4-.525.171.171,0,0,0,.175-.175l6.471-3.323-5.246,5.246a4.558,4.558,0,0,0-1.224,3.5Zm9.968,8.569.7,1.4a8.268,8.268,0,0,0-7.17,2.1,8.709,8.709,0,0,0-.175-7.52l1.574.175h1.049a4.663,4.663,0,0,0,2.448-1.224l.175-.175,5.072-5.072.175-.175v.175l-3.5,6.646a3.988,3.988,0,0,0-.35,3.673Zm4.547,3.323,1.574-.175a4.261,4.261,0,0,0,2.973-2.273.171.171,0,0,1,.175-.175l3.323-6.471v0l-1.224,7.345a4.057,4.057,0,0,0,1.049,3.5l1.049,1.049a8.8,8.8,0,0,0-6.3,4.2,8.614,8.614,0,0,0-2.623-7Zm32.7,7a8.322,8.322,0,0,0-6.3-4.2l1.049-1.049a4.057,4.057,0,0,0,1.049-3.5v-.175l-1.049-7.17v0l3.323,6.646a4.355,4.355,0,0,0,2.8,2.273l1.574.35A7.482,7.482,0,0,0,85.818,116.1Zm13.466-6.82a8.58,8.58,0,0,0-7.17-2.1l.7-1.4a3.931,3.931,0,0,0-.175-3.673.171.171,0,0,0-.175-.175L89.14,95.461v0l5.246,5.246a3.839,3.839,0,0,0,3.5,1.224l1.574-.175a8.709,8.709,0,0,0-.175,7.52Zm2.273-15.564L96.31,88.465l-.175-.175h.175l6.645,3.5a3.931,3.931,0,0,0,3.673.175l1.4-.7a8.268,8.268,0,0,0,2.1,7.17,8.709,8.709,0,0,0-7.52.175l.175-1.574a4.407,4.407,0,0,0-1.224-3.323Zm23.259-44.945.175-.35a6.555,6.555,0,0,1,4.022-4.022c4.372-1.4,6.3,3.148,6.645,4.547a7.354,7.354,0,0,1,.175,4.722,4.024,4.024,0,0,1-2.973,2.8,2.218,2.218,0,0,1-1.049.175,6.555,6.555,0,0,1-4.722-1.049l-.175-.175a8.8,8.8,0,0,0-6.3-1.574,9.135,9.135,0,0,0,4.2-5.072ZM140.206,68c-.525-3.673-2.8-5.771-6.121-5.771a8.42,8.42,0,0,0-4.2,1.224,14.136,14.136,0,0,0-.175-2.8,16.374,16.374,0,0,0-.7-2.8,7.468,7.468,0,0,0,4.372-.175,5.782,5.782,0,0,0,3.847-3.673,10.261,10.261,0,0,0-.175-5.6c-1.4-4.547-4.722-6.645-8.394-5.421a10.417,10.417,0,0,0-3.673,2.448,11.74,11.74,0,0,0-1.049-2.623,7.336,7.336,0,0,0-1.574-2.448,7.116,7.116,0,0,0,4.2-1.4,5.806,5.806,0,0,0,2.448-4.722,9.244,9.244,0,0,0-1.924-5.246c-2.8-3.847-6.471-4.9-9.618-2.448a7.451,7.451,0,0,0-2.623,3.5,12.041,12.041,0,0,0-1.924-2.273,18.523,18.523,0,0,0-2.1-1.749,7.451,7.451,0,0,0,3.5-2.623,5.255,5.255,0,0,0,.874-5.246,9.081,9.081,0,0,0-3.5-4.372c-3.847-2.8-7.695-2.623-9.968.525a7.116,7.116,0,0,0-1.4,4.2,11.728,11.728,0,0,0-2.448-1.574,16.412,16.412,0,0,0-2.623-1.049,6.566,6.566,0,0,0,2.448-3.673,5.51,5.51,0,0,0-.7-5.246,9.4,9.4,0,0,0-4.722-3.148c-4.547-1.4-8.045,0-9.269,3.673a7.468,7.468,0,0,0-.175,4.372,16.374,16.374,0,0,0-2.8-.7,7.571,7.571,0,0,0-2.8-.175,8.42,8.42,0,0,0,1.224-4.2,5.891,5.891,0,0,0-2.448-4.9A8.647,8.647,0,0,0,70.6.5a7.173,7.173,0,0,0-1.924.175H68.5c-3.673.525-5.771,2.8-5.771,6.121a8.42,8.42,0,0,0,1.224,4.2,14.136,14.136,0,0,0-2.8.175,19.781,19.781,0,0,0-2.623.7A7.468,7.468,0,0,0,58.361,7.5a5.667,5.667,0,0,0-3.847-3.847,10.261,10.261,0,0,0-5.6.175c-4.547,1.4-6.646,4.722-5.421,8.394a10.417,10.417,0,0,0,2.448,3.673,11.74,11.74,0,0,0-2.623,1.049,7.335,7.335,0,0,0-2.448,1.574,7.537,7.537,0,0,0-1.4-4.2,4.915,4.915,0,0,0-4.547-2.448,9.244,9.244,0,0,0-5.246,1.924c-3.847,2.8-4.9,6.471-2.448,9.618a7.451,7.451,0,0,0,3.5,2.623,25.7,25.7,0,0,0-2.273,1.749,18.522,18.522,0,0,0-1.749,2.1,7.451,7.451,0,0,0-2.623-3.5,5.255,5.255,0,0,0-5.246-.874,9.081,9.081,0,0,0-4.372,3.5c-2.8,3.847-2.623,7.695.525,9.968a7.116,7.116,0,0,0,4.2,1.4,11.728,11.728,0,0,0-1.574,2.448,16.412,16.412,0,0,0-1.049,2.623A6.566,6.566,0,0,0,12.892,43a5.93,5.93,0,0,0-5.421.7,9.686,9.686,0,0,0-3.148,4.547c-1.4,4.547,0,8.045,3.673,9.269a7.468,7.468,0,0,0,4.372.175,16.374,16.374,0,0,0-.7,2.8c0,1.049-.175,2.1-.175,2.973a7.337,7.337,0,0,0-4.2-1.224,5.891,5.891,0,0,0-4.9,2.448A9.319,9.319,0,0,0,1,69.928c0,4.722,2.448,7.695,6.3,7.695a8.42,8.42,0,0,0,4.2-1.224,14.136,14.136,0,0,0,.175,2.8,16.374,16.374,0,0,0,.7,2.8A7.468,7.468,0,0,0,8,82.17a5.667,5.667,0,0,0-3.847,3.847,10.261,10.261,0,0,0,.175,5.6c1.4,4.547,4.722,6.646,8.394,5.421a10.417,10.417,0,0,0,3.673-2.448,11.74,11.74,0,0,0,1.049,2.623,7.336,7.336,0,0,0,1.574,2.448,7.116,7.116,0,0,0-4.2,1.4,5.806,5.806,0,0,0-2.448,4.722,9.244,9.244,0,0,0,1.924,5.246c2.8,3.847,6.471,4.9,9.618,2.448a7.451,7.451,0,0,0,2.623-3.5,25.706,25.706,0,0,0,1.749,2.273A11.227,11.227,0,0,0,30.555,114a7.451,7.451,0,0,0-3.5,2.623,5.255,5.255,0,0,0-.874,5.246,9.081,9.081,0,0,0,3.5,4.372c3.847,2.8,7.695,2.623,9.968-.525a7.116,7.116,0,0,0,1.4-4.2,11.728,11.728,0,0,0,2.448,1.574,16.412,16.412,0,0,0,2.623,1.049,6.566,6.566,0,0,0-2.448,3.673,5.51,5.51,0,0,0,.7,5.246,9.4,9.4,0,0,0,4.722,3.148c4.547,1.4,8.045,0,9.269-3.673a7.468,7.468,0,0,0,.175-4.372,16.374,16.374,0,0,0,2.8.7,15.043,15.043,0,0,0,2.8.175,6.972,6.972,0,0,0-1.224,4.2,5.891,5.891,0,0,0,2.448,4.9,7.67,7.67,0,0,0,5.421,1.4c4.722,0,7.695-2.448,7.695-6.3a8.42,8.42,0,0,0-1.224-4.2,14.136,14.136,0,0,0,2.8-.175,16.374,16.374,0,0,0,2.8-.7,7.468,7.468,0,0,0,.175,4.372,5.667,5.667,0,0,0,3.847,3.847,10.261,10.261,0,0,0,5.6-.175c4.547-1.4,6.646-4.722,5.421-8.394a10.417,10.417,0,0,0-2.448-3.673,11.74,11.74,0,0,0,2.623-1.049,7.335,7.335,0,0,0,2.448-1.574,7.537,7.537,0,0,0,1.4,4.2,5.806,5.806,0,0,0,4.722,2.448,9.244,9.244,0,0,0,5.246-1.924c3.847-2.8,4.9-6.471,2.448-9.618a7.451,7.451,0,0,0-3.5-2.623,25.705,25.705,0,0,0,2.273-1.749,18.523,18.523,0,0,0,1.749-2.1,7.451,7.451,0,0,0,2.623,3.5,5.255,5.255,0,0,0,5.246.874,9.081,9.081,0,0,0,4.372-3.5c2.8-3.847,2.623-7.695-.525-9.968a7.116,7.116,0,0,0-4.2-1.4,11.728,11.728,0,0,0,1.574-2.448,16.411,16.411,0,0,0,1.049-2.623,6.566,6.566,0,0,0,3.673,2.448,5.93,5.93,0,0,0,5.421-.7,9.686,9.686,0,0,0,3.148-4.547c1.4-4.547,0-8.045-3.673-9.269a7.468,7.468,0,0,0-4.372-.175,16.374,16.374,0,0,0,.7-2.8,7.571,7.571,0,0,0,.175-2.8,7.337,7.337,0,0,0,4.2,1.224,5.891,5.891,0,0,0,4.9-2.448A8.68,8.68,0,0,0,140.73,70.1a9.225,9.225,0,0,1-.525-2.1Z" transform="translate(0 0)" fill="#dcdcdc"/>
    <path id="Path_47727" data-name="Path 47727" d="M90.3,6.75h18.013V10.6H94.847v7h12.242l.525,3.673H94.847v7.52h13.816v3.673H90.3Zm31.129,15.739-7.17,9.968h-4.9l9.444-13.291L110.062,7.1l5.072-.525,6.646,9.444,6.3-9.269h4.9L124.4,19.166l9.618,13.116-4.9.525Zm34.976-7.17c0,5.072-3.5,8.569-9.968,8.569h-6.471v8.744h-4.547V6.75h11.018c6.471,0,9.968,3.5,9.968,8.569m-4.722,0c0-3.148-2.273-4.722-5.421-4.722h-6.3v9.618h6.3c3.148-.175,5.421-1.749,5.421-4.9m5.946,4.372c0-7.345,4.9-13.291,13.641-13.291s13.641,5.946,13.641,13.291-4.9,13.291-13.641,13.291-13.641-5.946-13.641-13.291m4.547,0c0,5.6,3.323,9.444,9.094,9.444s9.094-3.847,9.094-9.444-3.323-9.444-9.094-9.444-9.094,3.847-9.094,9.444M90.3,67.259h8.744c8.219,0,13.116,5.246,13.116,12.941,0,7.52-4.9,12.941-13.116,12.941H90.3Zm20.286,12.766c0-7-4.547-11.367-11.717-11.367H91.7V91.567h7.17C106.039,91.567,110.586,87.2,110.586,80.025Zm7-12.941V83.523c0,4.722,3.148,8.394,9.094,8.394s9.094-3.673,9.094-8.394V67.434l1.574-.35V83.523c0,5.246-3.323,9.793-10.493,9.793-7.52,0-10.493-5.072-10.493-9.793V67.434l1.224-.35Zm43.545,6.82A5.956,5.956,0,0,1,157.1,79.85c3.148.525,4.9,2.8,4.9,6.3,0,4.722-2.973,7-8.569,7H142.59V67.259h9.618C157.8,67.259,161.127,69.182,161.127,73.9Zm-1.574,0c0-4.722-3.673-5.246-7.695-5.246h-7.695V78.976h7.695C155.881,78.976,159.553,78.626,159.553,73.9Zm-15.39,17.663h8.919c4.2,0,7.345-.7,7.345-5.421s-3.323-5.6-7.345-5.6h-8.919V91.567Zm38.824-5.421h-15.04l-2.973,6.82H163.4l11.192-25.708,1.574-.35,11.367,25.882-1.574.35Zm-.7-1.4-7-15.739-6.82,15.739Zm8.569,8.219V67.434l1.574-.35V92.966Z" transform="translate(66.869 4.418)" fill="#dcdcdc"/>
    <path id="Path_47728" data-name="Path 47728" d="M91.624,58.3V74.739c0,4.722,3.148,8.394,9.094,8.394s9.094-3.673,9.094-8.394V58.65l1.574-.35V74.739c0,5.246-3.323,9.793-10.493,9.793-7.52,0-10.493-5.072-10.493-9.793V58.65l1.224-.35Zm41.447,19.237h-15.04l-2.973,6.82h-1.574L124.677,58.65l1.574-.35,11.367,25.882-1.574.35Zm-.525-1.4-7-15.739-6.82,15.739Zm8.569-17.488h17.313v1.4H142.515V70.367H157.2l.525,1.4H142.515V82.783h16.264v1.574H141.116Z" transform="translate(66.944 43.282)" fill="#dcdcdc"/>
    <path id="Path_47729" data-name="Path 47729" d="M99.394,23.7c5.072,0,9.444,2.273,9.444,7.345,0,8.219-13.641,9.618-13.641,15.04h13.466l.525,3.673H90.3V47.484c0-9.793,13.991-9.968,13.991-16.089,0-2.973-2.448-4.022-5.246-4.022-2.623,0-4.9,1.049-7.345,2.448L91,26.148A17.956,17.956,0,0,1,99.394,23.7m11.367,13.291c0-7.345,3.673-13.291,11.367-13.291S133.5,29.646,133.5,36.991s-3.847,13.291-11.367,13.291c-7.695-.175-11.367-5.946-11.367-13.291m4.547,0c0,5.771,2.1,9.618,6.82,9.618s6.82-3.847,6.82-9.618-2.1-9.618-6.82-9.618-6.82,3.847-6.82,9.618" transform="translate(66.869 17.373)" fill="#dcdcdc"/>
    <path id="Path_47730" data-name="Path 47730" d="M125.069,23.7c5.072,0,9.444,2.273,9.444,7.345,0,8.219-13.641,9.618-13.641,15.04h13.466l.525,3.673H115.8V47.484c0-9.793,13.991-9.968,13.991-16.089,0-2.973-2.448-4.022-5.246-4.022-2.623,0-4.9,1.049-7.345,2.448l-.7-3.673a18.639,18.639,0,0,1,8.569-2.448m11.367,13.291c0-7.345,3.673-13.291,11.367-13.291s11.367,5.946,11.367,13.291S155.323,50.282,147.8,50.282c-7.695-.175-11.367-5.946-11.367-13.291m4.547,0c0,5.771,2.1,9.618,6.82,9.618s6.82-3.847,6.82-9.618-2.1-9.618-6.82-9.618c-4.722-.175-6.82,3.847-6.82,9.618" transform="translate(85.964 17.373)" fill="#dcdcdc"/>
  </g>
</svg>
