<svg id="Twitter" xmlns="http://www.w3.org/2000/svg" width="22.351" height="18.188" viewBox="0 0 22.351 18.188">
  <path id="_x30_4.Twitter" d="M32.251,19.651a9.4,9.4,0,0,1-2.626.726,4.47,4.47,0,0,0,2.012-2.542,9.649,9.649,0,0,1-2.906,1.118A4.586,4.586,0,0,0,20.8,22.082a4.189,4.189,0,0,0,.112,1.034,12.9,12.9,0,0,1-9.415-4.777,4.6,4.6,0,0,0,1.4,6.119,4.4,4.4,0,0,1-2.067-.559,4.63,4.63,0,0,0,3.66,4.554,5.029,5.029,0,0,1-2.067.084,4.6,4.6,0,0,0,4.275,3.185,9.231,9.231,0,0,1-6.789,1.9A13.02,13.02,0,0,0,29.96,22.669a4.126,4.126,0,0,0-.028-.587A9.094,9.094,0,0,0,32.251,19.651Z" transform="translate(-9.9 -17.5)" fill="#fff"/>
</svg>
